<svg width="19" height="17" viewBox="0 0 19 17" fill="none" xmlns="http://www.w3.org/2000/svg">
<path d="M18.7774 6.49104L16.6251 4.95039V1.59352C16.6251 1.29987 16.3595 1.06227 16.0313 1.06227H13.6575C13.3299 1.06227 13.0637 1.29987 13.0637 1.59299L13.0631 2.40076L9.87111 0.115956C9.65423 -0.038652 9.34576 -0.038652 9.12892 0.115956L0.222546 6.49108C0.0259786 6.63219 -0.0499677 6.8693 0.0335227 7.08198C0.117013 7.2947 0.341439 7.43735 0.593638 7.43735H2.37488V16.4687C2.37488 16.7624 2.64044 17 2.96863 17H16.0313C16.3595 17 16.6251 16.7624 16.6251 16.4687V7.43735H18.4064C18.6586 7.43735 18.883 7.2947 18.9665 7.08198C19.05 6.86926 18.974 6.63219 18.7774 6.49104ZM14.25 3.18783L14.2506 2.1248H15.4376V4.10043L14.1626 3.18779C14.1625 3.18775 14.25 3.18783 14.25 3.18783ZM8.31248 15.9374V11.6874H10.6875V15.9374H8.31248ZM16.0313 6.37482C15.7031 6.37482 15.4376 6.61243 15.4376 6.90607V15.9374H11.875V11.1561C11.875 10.8625 11.6095 10.6249 11.2813 10.6249H7.71877C7.39059 10.6249 7.12503 10.8625 7.12503 11.1561V15.9374H3.56242V6.90607C3.56242 6.61243 3.29686 6.37482 2.96867 6.37482H2.28616L9.49997 1.21118L16.7138 6.37486C16.7138 6.37482 16.0313 6.37482 16.0313 6.37482Z" fill="white"/>
</svg>
