<svg width="8" height="13" viewBox="0 0 8 13" fill="none" xmlns="http://www.w3.org/2000/svg">
<path d="M2.71094 8.50781C2.71094 7.77865 2.79948 7.19792 2.97656 6.76562C3.15365 6.33333 3.47656 5.90885 3.94531 5.49219C4.41927 5.07031 4.73438 4.72917 4.89062 4.46875C5.04688 4.20312 5.125 3.92448 5.125 3.63281C5.125 2.7526 4.71875 2.3125 3.90625 2.3125C3.52083 2.3125 3.21094 2.43229 2.97656 2.67188C2.7474 2.90625 2.6276 3.23177 2.61719 3.64844H0.351562C0.361979 2.65365 0.682292 1.875 1.3125 1.3125C1.94792 0.75 2.8125 0.46875 3.90625 0.46875C5.01042 0.46875 5.86719 0.736979 6.47656 1.27344C7.08594 1.80469 7.39062 2.55729 7.39062 3.53125C7.39062 3.97396 7.29167 4.39323 7.09375 4.78906C6.89583 5.17969 6.54948 5.61458 6.05469 6.09375L5.42188 6.69531C5.02604 7.07552 4.79948 7.52083 4.74219 8.03125L4.71094 8.50781H2.71094ZM2.48438 10.9062C2.48438 10.5573 2.60156 10.2708 2.83594 10.0469C3.07552 9.81771 3.38021 9.70312 3.75 9.70312C4.11979 9.70312 4.42188 9.81771 4.65625 10.0469C4.89583 10.2708 5.01562 10.5573 5.01562 10.9062C5.01562 11.25 4.89844 11.5339 4.66406 11.7578C4.4349 11.9818 4.13021 12.0938 3.75 12.0938C3.36979 12.0938 3.0625 11.9818 2.82812 11.7578C2.59896 11.5339 2.48438 11.25 2.48438 10.9062Z" fill="white"/>
</svg>
