<svg width="36" height="36" viewBox="0 0 36 36" fill="none" xmlns="http://www.w3.org/2000/svg">
<g clip-path="url(#clip0)">
<path d="M7.92985 25.4644C7.92985 24.7729 8.49324 24.2095 9.18479 24.2095C9.87628 24.2095 10.4397 24.7729 10.4397 25.4644C10.4397 26.156 9.87628 26.7194 9.18479 26.7194C8.49331 26.7194 7.92985 26.156 7.92985 25.4644ZM8.2066 25.4644C8.2066 26.0041 8.6449 26.4426 9.18479 26.4426C9.72448 26.4426 10.163 26.0043 10.163 25.4644C10.163 24.9245 9.72449 24.4862 9.18479 24.4862C8.64504 24.4862 8.2066 24.9247 8.2066 25.4644Z" stroke="#005DA8"/>
<path d="M28.5894 25.4644V25.4644C28.5894 26.156 28.026 26.7194 27.3345 26.7194C26.643 26.7194 26.0795 26.156 26.0795 25.4644C26.0795 24.7729 26.6429 24.2095 27.3345 24.2095C28.0261 24.2095 28.5895 24.7729 28.5894 25.4644ZM26.3563 25.4644C26.3563 26.0041 26.7946 26.4426 27.3345 26.4426C27.8743 26.4426 28.3127 26.0043 28.3127 25.4644C28.3127 24.9245 27.8742 24.4862 27.3345 24.4862C26.7947 24.4862 26.3563 24.9247 26.3563 25.4644Z" stroke="#005DA8"/>
<path d="M34.4204 22.3849V22.6347L34.6202 22.7847C34.9919 23.0639 35.2308 23.5065 35.2308 24.003C35.2308 24.003 35.2308 24.003 35.2308 24.0031V24.0813C35.2308 24.9199 34.5479 25.6028 33.7093 25.6028H31.1104H30.6877L30.6174 26.0197C30.3522 27.5926 28.9803 28.7945 27.3346 28.7945C25.6888 28.7945 24.3169 27.5926 24.0517 26.0197L23.9814 25.6028H23.5587H12.9606H12.5379L12.4676 26.0197C12.2024 27.5926 10.8305 28.7945 9.18476 28.7945C7.53905 28.7945 6.16709 27.5926 5.90192 26.0197L5.83164 25.6028H5.40888H2.80999C1.97144 25.6028 1.28846 24.9199 1.28846 24.0813V24.003C1.28846 23.5065 1.5273 23.0639 1.89909 22.7846L2.09878 22.6346V22.3848V11.9107C2.09878 9.03041 4.4429 6.68628 7.32316 6.68628H31.2356C32.9912 6.68628 34.4204 8.11548 34.4204 9.87117V16.3949V22.3849ZM33.6437 16.2565H34.1437V15.7565V10.5096V10.0096H33.6437H31.8917C31.5257 10.0096 31.2291 10.3065 31.2291 10.6721V15.5939C31.2291 15.96 31.5261 16.2565 31.8917 16.2565H33.6437ZM6.46542 23.5462L7.02375 22.7574H6.0573H2.80999C2.1226 22.7574 1.56522 23.3163 1.56522 24.003V24.0813C1.56522 24.7681 2.12316 25.3261 2.80999 25.3261H5.40879H5.83156L5.90183 24.9092C5.98621 24.4086 6.18274 23.9456 6.46542 23.5462ZM23.5586 25.3261H23.9814L24.0516 24.9092C24.3167 23.3363 25.6888 22.1343 27.3344 22.1344C27.827 22.1344 28.2939 22.2426 28.715 22.4354L28.8142 22.4808H28.9232H33.6437H34.1437V21.9808V17.0334V16.5334H33.6437H31.8916C31.3741 16.5334 30.9523 16.1115 30.9523 15.594V10.6722C30.9523 10.1547 31.3741 9.73288 31.8916 9.73288H33.5571H34.2134L34.0392 9.10015C33.7006 7.87054 32.5738 6.96312 31.2356 6.96312H7.32316C4.59463 6.96312 2.37553 9.18212 2.37553 11.9108V21.9806V22.4806H2.87553H7.59605H7.70508L7.80422 22.4352C8.22535 22.2424 8.69221 22.1342 9.18476 22.1342C10.8304 22.1342 12.2025 23.3362 12.4676 24.9092L12.5379 25.3261H12.9606H23.5586ZM30.6174 24.9092L30.6877 25.3261H31.1104H33.7092C34.3961 25.3261 34.954 24.7681 34.954 24.0813V24.003C34.954 23.3163 34.3966 22.7574 33.7092 22.7574H30.4619H29.4955L30.0538 23.5462C30.3365 23.9456 30.533 24.4086 30.6174 24.9092ZM6.13141 25.4643C6.13141 27.1483 7.50067 28.5177 9.18476 28.5177C10.8688 28.5177 12.2381 27.1483 12.2381 25.4643C12.2381 23.7802 10.8688 22.411 9.18476 22.411C7.50069 22.411 6.13141 23.7802 6.13141 25.4643ZM24.2811 25.4643C24.2811 27.1483 25.6504 28.5177 27.3345 28.5177C29.0186 28.5177 30.3878 27.1483 30.3878 25.4643C30.3878 23.7802 29.0185 22.411 27.3345 22.411C25.6504 22.411 24.2811 23.7802 24.2811 25.4643Z" stroke="#005DA8"/>
<path d="M17.1197 10.0097H16.6197V10.5097V15.7566V16.2566H17.1197H22.1383H22.6383V15.7566V10.5097V10.0097H22.1383H17.1197ZM15.843 16.2566H16.343V15.7566V10.5097V10.0097H15.843H10.8245H10.3245V10.5097V15.7566V16.2566H10.8245H15.843ZM10.0477 10.5097V10.0097H9.54772H7.47376C6.20336 10.0097 5.17063 11.0424 5.17063 12.3128V15.5941C5.17063 15.9597 5.46718 16.2566 5.83321 16.2566H9.54772H10.0477V15.7566V10.5097ZM22.915 15.7566V16.2566H23.415H27.1294C27.4955 16.2566 27.792 15.9597 27.792 15.5941V10.6722C27.792 10.3062 27.495 10.0097 27.1294 10.0097H23.415H22.915V10.5097V15.7566ZM28.0688 10.6722V15.5941C28.0688 16.1116 27.647 16.5334 27.1295 16.5334H5.83321C5.31565 16.5334 4.89388 16.1116 4.89388 15.5941V12.3128C4.89388 10.8907 6.05164 9.73291 7.47376 9.73291H27.1294C27.647 9.73291 28.0688 10.1547 28.0688 10.6722Z" stroke="#005DA8"/>
<path d="M32.3808 20.3497C32.3808 20.4261 32.3188 20.488 32.2424 20.488C32.166 20.488 32.104 20.4261 32.104 20.3497V19.7822C32.104 19.7058 32.166 19.6438 32.2424 19.6438C32.3188 19.6438 32.3808 19.7058 32.3808 19.7822V20.3497Z" stroke="#005DA8"/>
</g>
<defs>
<clipPath id="clip0">
<rect width="34.9423" height="34.9423" fill="white" transform="translate(0.78846 0.269287)"/>
</clipPath>
</defs>
</svg>
