<svg width="36" height="36" viewBox="0 0 36 36" fill="none" xmlns="http://www.w3.org/2000/svg">
<path d="M22.7714 27.4905C23.2747 27.3847 23.7703 27.254 24.2544 27.1233C24.3205 27.1054 24.3863 27.0876 24.4519 27.0698C24.8707 26.9564 25.2807 26.8454 25.6941 26.748C26.0268 26.6701 26.1864 26.7008 26.2762 26.746C26.3672 26.7917 26.4882 26.9034 26.628 27.2173L26.6288 27.219C26.9881 28.0171 27.3185 28.8296 27.6457 29.6495L27.6461 29.6505C27.7648 29.9461 27.7594 30.1472 27.7099 30.2817C27.662 30.4118 27.5412 30.5652 27.2478 30.7035C26.4981 31.0578 25.711 31.347 24.9171 31.57C21.8538 32.4353 18.8074 32.4624 15.7882 31.4588C12.1672 30.2552 9.75628 27.7371 8.30457 24.1469C8.10588 23.6483 7.95939 23.1369 7.80473 22.5971C7.74599 22.3921 7.68608 22.1829 7.62168 21.9688L7.51461 21.6128H7.14287H4.18223C3.97252 21.6128 3.78433 21.438 3.78433 21.1924V19.1462C3.78433 18.9006 3.97251 18.7257 4.18223 18.7257H6.63932H7.13932V18.2257V18.2224V18.2191V18.2158V18.2125V18.2092V18.2058V18.2025V18.1992V18.1959V18.1926V18.1893V18.186V18.1827V18.1794V18.1761V18.1727V18.1694V18.1661V18.1628V18.1595V18.1562V18.1529V18.1496V18.1463V18.143V18.1397V18.1364V18.1331V18.1298V18.1265V18.1232V18.1199V18.1166V18.1133V18.11V18.1067V18.1034V18.1001V18.0968V18.0935V18.0902V18.0869V18.0836V18.0803V18.0771V18.0738V18.0705V18.0672V18.0639V18.0606V18.0573V18.054V18.0507V18.0474V18.0441V18.0409V18.0376V18.0343V18.031V18.0277V18.0244V18.0211V18.0179V18.0146V18.0113V18.008V18.0047V18.0014V17.9982V17.9949V17.9916V17.9883V17.985V17.9818V17.9785V17.9752V17.9719V17.9686V17.9654V17.9621V17.9588V17.9555V17.9523V17.949V17.9457V17.9424V17.9392V17.9359V17.9326V17.9293V17.9261V17.9228V17.9195V17.9163V17.913V17.9097V17.9064V17.9032V17.8999V17.8966V17.8934V17.8901V17.8868V17.8836V17.8803V17.877V17.8738V17.8705V17.8672V17.864V17.8607V17.8574V17.8542V17.8509V17.8476V17.8444V17.8411V17.8379V17.8346V17.8313V17.8281V17.8248V17.8215V17.8183V17.815V17.8118V17.8085V17.8052V17.802V17.7987V17.7955V17.7922V17.789V17.7857V17.7824V17.7792V17.7759V17.7727V17.7694V17.7662V17.7629V17.7596V17.7564V17.7531V17.7499V17.7466V17.7434V17.7401V17.7369V17.7336V17.7304V17.7271V17.7239V17.7206V17.7174V17.7141V17.7109V17.7076V17.7044V17.7011V17.6979V17.6946V17.6914V17.6881V17.6849V17.6816V17.6784V17.6751V17.6719V17.6686V17.6654V17.6621V17.6589V17.6556V17.6524V17.6491V17.6459V17.6426V17.6394V17.6362V17.6329V17.6297V17.6264V17.6232V17.6199V17.6167V17.6134V17.6102V17.607V17.6037V17.6005V17.5972V17.594V17.5907V17.5875V17.5843V17.581V17.5778V17.5745V17.5713V17.568V17.5648V17.5616V17.5583V17.5551V17.5518V17.5486V17.5454V17.5421V17.5389V17.5356V17.5324V17.5292V17.5259V17.5227V17.5194V17.5162V17.513V17.5097V17.5065V17.5033V17.5V17.4968V17.4935V17.4903V17.4871V17.4838V17.4806V17.4774V17.4741V17.4709V17.4676V17.4644V17.4612V17.4579V17.4547V17.4515V17.4482V17.445V17.4418V17.4385V17.4353V17.4321V17.4288V17.4256V17.4223V17.4191V17.4159V17.4126V17.4094V17.4062V17.4029V17.3997V17.3965V17.3932V17.39V17.3868V17.3835V17.3803V17.3771V17.3738V17.3706V17.3674V17.3641V17.3609V17.3577V17.3544V17.3512V17.348V17.3447V17.3415V17.3383V17.335V17.3318V17.3286V17.3253V17.3221V17.3189V17.3156V17.3124V17.3092V17.3059V17.3027V17.2995V17.2962V17.293V17.2898V17.2865V17.2833V17.2801V17.2768V17.2736V17.2704V17.2671V17.2639V17.2607V17.2574V17.2542V17.251V17.2477V17.2445V17.2413V17.238V17.2348V17.2316V17.2283V17.2251V17.2219V17.2186V17.2154V17.2122V17.2089V17.2057V17.2025V17.1992V17.196V17.1928V17.1895V17.1863V17.1831V17.1798V17.1766V17.1734V17.1701V17.1669V17.1637V17.1604V17.1572V17.154V17.1507V17.1475V17.1443V17.141V17.1378V17.1346V17.1313V17.1281V17.1249V17.1216V17.1184V17.1152V17.1119V17.1087V17.1054V17.1022V17.099V17.0957V17.0925V17.0893V17.086V17.0828V17.0796V17.0763V17.0731V17.0699V17.0666V17.0634V17.0601V17.0569V17.0537V17.0504V17.0472V17.044V17.0407V17.0375V17.0342V17.031V17.0278V17.0245V17.0213V17.018V17.0148V17.0116V17.0083V17.0051V17.0019V16.9986V16.9954V16.9921V16.9889V16.9857V16.9824V16.9792V16.9759V16.9727V16.9694V16.9662V16.963V16.9597V16.9565V16.9532V16.95V16.9468V16.9435V16.9403V16.937V16.9338V16.9305V16.9273V16.924V16.9208V16.9176V16.9143V16.9111V16.9078V16.9046V16.9013V16.8981V16.8948V16.8916V16.8883V16.8851V16.8819V16.8786V16.8754V16.8721V16.8689V16.8656V16.8624V16.8591V16.8559V16.8526V16.8494V16.8461V16.8429V16.8396V16.8364V16.8331V16.8299V16.8266V16.8234V16.8201V16.8169V16.8136V16.8104V16.8071V16.8039V16.8006V16.7973V16.7941V16.7908V16.7876V16.7843V16.7811V16.7778V16.7746V16.7713V16.7681V16.7648V16.7615V16.7583V16.755V16.7518V16.7485V16.7453V16.742V16.7387V16.7355V16.7322V16.729V16.7257V16.7224V16.7192V16.7159V16.7126V16.7094V16.7061V16.7029V16.6996V16.6963V16.6931V16.6898V16.6865V16.6833V16.68V16.6767V16.6735V16.6702V16.667V16.6637V16.6604V16.6571V16.6539V16.6506V16.6473V16.6441V16.6408V16.6375V16.6343V16.631V16.6277V16.6245V16.6212V16.6179V16.6146V16.6114V16.6081V16.6048V16.6015V16.5983V16.595V16.5917V16.5884V16.5852V16.5819V16.5786V16.5753V16.5721V16.5688V16.5655V16.5622V16.5589V16.0589H6.63932H4.18223C3.97251 16.0589 3.78433 15.8841 3.78433 15.6385V13.5923C3.78433 13.3467 3.97251 13.1718 4.18223 13.1718H7.30061H7.6638L7.7761 12.8264L7.87924 12.5093L7.88196 12.5006C8.69438 9.83915 10.0871 7.59881 12.2222 5.90503C13.9068 4.56385 15.867 3.81932 17.9927 3.46919C21.0038 2.97584 23.9268 3.39473 26.7778 4.53469L26.779 4.53517C26.9458 4.60136 27.1028 4.67681 27.2519 4.76642C27.5429 4.94129 27.6591 5.10022 27.7033 5.2325C27.7475 5.36485 27.7504 5.56262 27.6223 5.87936L27.6219 5.8803C27.2941 6.6954 26.9699 7.49533 26.6166 8.28113C26.4851 8.57462 26.3654 8.68639 26.2743 8.73312C26.1861 8.77828 26.0351 8.80888 25.7359 8.73928C25.3134 8.64097 24.8943 8.52758 24.4656 8.4116C24.4035 8.39479 24.3412 8.37793 24.2786 8.36105C23.7886 8.22886 23.2865 8.09643 22.7766 7.99057C20.6268 7.53584 18.4505 7.50773 16.3042 8.37727C14.4131 9.1473 13.2755 10.6218 12.5154 12.3803C12.4712 12.4628 12.4594 12.5369 12.4552 12.5671C12.4484 12.6159 12.4488 12.6625 12.4489 12.6707V12.6718V13.1718H12.9489H19.0158C19.2255 13.1718 19.4137 13.3467 19.4137 13.5923V15.6385C19.4137 15.8841 19.2255 16.0589 19.0158 16.0589H12.0753H11.5808L11.5753 16.5534C11.5712 16.92 11.5726 17.2896 11.5739 17.6623C11.5746 17.8493 11.5753 18.0371 11.5753 18.2257V18.7257H12.0753H19.0158C19.2255 18.7257 19.4137 18.9006 19.4137 19.1462V21.1924C19.4137 21.438 19.2255 21.6128 19.0158 21.6128H12.6819H11.9829L12.2088 22.2744C13.0031 24.601 14.3336 26.4975 16.8725 27.3155C18.8392 27.9523 20.8242 27.9075 22.7714 27.4905ZM22.7714 27.4905L22.6681 27.0014L22.7728 27.4902L22.7714 27.4905Z" stroke="#005DA8"/>
</svg>
