<svg width="35" height="35" viewBox="0 0 35 35" fill="none" xmlns="http://www.w3.org/2000/svg">
<path d="M19.974 4.36779V4.86779H20.474H24.1593C25.7648 4.86779 27.0717 6.17468 27.0717 7.78012V10.0779C27.0717 10.1787 26.99 10.2603 26.8892 10.2603C26.7884 10.2603 26.7067 10.1787 26.7067 10.0779V7.78012C26.7067 6.37498 25.5645 5.23272 24.1593 5.23272H20.474H19.974V5.73272V6.68818C19.974 6.78899 19.8924 6.87064 19.7915 6.87064H7.78012C7.67931 6.87064 7.59766 6.78899 7.59766 6.68818V5.73272V5.23272H7.09766H3.41233C2.31692 5.23272 1.63145 5.50726 1.24098 5.96352C0.864316 6.40365 0.864762 6.90269 0.864927 7.0869C0.864931 7.09061 0.864934 7.0942 0.864934 7.09766V31.53C0.864934 32.9351 2.00719 34.0774 3.41233 34.0774H24.1593C25.5645 34.0774 26.7067 32.9351 26.7067 31.53V16.0836C26.7067 15.9827 26.7884 15.9011 26.8892 15.9011C26.99 15.9011 27.0717 15.9827 27.0717 16.0836V31.53C27.0717 33.1354 25.7648 34.4423 24.1593 34.4423H3.41233C1.80689 34.4423 0.5 33.1354 0.5 31.53V7.09766C0.5 6.37911 0.761639 5.84663 1.21725 5.48214C1.68716 5.10622 2.41655 4.86779 3.41233 4.86779H7.09766H7.59766V4.36779V4.19211C7.59766 3.37786 8.26078 2.71455 9.07521 2.71455H10.3407H10.6684L10.7991 2.41414C11.2982 1.26793 12.4422 0.5 13.72 0.5H13.8517C15.1294 0.5 16.2735 1.26793 16.7725 2.41414L16.9033 2.71455H17.231H18.4965C19.3109 2.71455 19.974 3.37786 19.974 4.19211V4.36779ZM19.1091 6.50571H19.6091V6.00571V4.19211C19.6091 3.57848 19.1109 3.07949 18.4967 3.07949H16.7492C16.6668 3.07949 16.5948 3.02417 16.5734 2.94518L16.5733 2.94489C16.2406 1.71935 15.1218 0.864934 13.8517 0.864934H13.72C12.4499 0.864934 11.3311 1.71934 10.9986 2.94501C10.9769 3.02441 10.9049 3.07949 10.8224 3.07949H9.07521C8.4613 3.07949 7.96259 3.5782 7.96259 4.19211V6.00571V6.50571H8.46259H19.1091Z" stroke="#005DA8"/>
<path d="M26.8892 12.251C26.7098 12.251 26.5336 12.3232 26.4067 12.4501C26.2798 12.5778 26.2067 12.7532 26.2067 12.9326C26.2067 13.1129 26.2798 13.2883 26.4067 13.4157C26.5336 13.5429 26.7098 13.6159 26.8892 13.6159C27.0686 13.6159 27.2448 13.5429 27.3717 13.4157C27.4986 13.2888 27.5717 13.1129 27.5717 12.9326C27.5717 12.7532 27.4986 12.577 27.3717 12.4501C27.2448 12.3232 27.0686 12.251 26.8892 12.251Z" fill="#005DA8"/>
<path d="M34.2598 21.9753C34.0804 21.9753 33.9042 22.0484 33.7773 22.1753C33.6504 22.3022 33.5774 22.4784 33.5774 22.6578C33.5774 22.8372 33.6504 23.0134 33.7773 23.1403C33.9042 23.2672 34.0804 23.3403 34.2598 23.3403C34.4393 23.3403 34.6155 23.2672 34.7424 23.1403C34.8693 23.0134 34.9423 22.8372 34.9423 22.6578C34.9423 22.4784 34.8693 22.3022 34.7424 22.1753C34.6155 22.0484 34.4393 21.9753 34.2598 21.9753Z" fill="#005DA8"/>
<path d="M32.2427 7.97881L32.2427 7.97884L32.2467 7.98746L34.4991 12.7645L34.4423 19.9104H34.4423V19.9144C34.4423 20.0152 34.3607 20.0969 34.2598 20.0969C34.159 20.0969 34.0774 20.0152 34.0774 19.9144V13.6154V13.1154H33.5774H30.5745H30.0745V13.6154V30.4097V30.9097H30.5745H33.5774H34.0774V30.4097V25.6381C34.0774 25.5372 34.159 25.4556 34.2598 25.4556C34.3607 25.4556 34.4423 25.5372 34.4423 25.6381V33.3129C34.4423 33.9351 33.9352 34.4423 33.3129 34.4423H30.839C30.2167 34.4423 29.7096 33.9351 29.7096 33.3129V12.7638L31.9072 7.98306L31.9072 7.98306L31.9092 7.97881C31.9387 7.91282 32.0042 7.87061 32.0759 7.87061C32.1477 7.87061 32.2131 7.91282 32.2427 7.97881ZM32.5323 9.51953L32.0759 8.49983L31.6196 9.51953L30.4887 12.0463L30.1735 12.7505H30.9451H33.2068H33.9784L33.6632 12.0463L32.5323 9.51953ZM34.0774 31.7747V31.2747H33.5774H30.5745H30.0745V31.7747V33.3129C30.0745 33.7348 30.417 34.0773 30.839 34.0773H33.3129C33.7349 34.0773 34.0774 33.7348 34.0774 33.3129V31.7747Z" stroke="#005DA8"/>
<path d="M5.66408 12.694C5.66408 11.3895 6.72598 10.3276 8.03044 10.3276C9.33466 10.3276 10.3968 11.3896 10.3968 12.694C10.3968 13.9984 9.33466 15.0604 8.03044 15.0604C6.72598 15.0604 5.66408 13.9985 5.66408 12.694ZM6.02901 12.694C6.02901 13.7982 6.92627 14.6954 8.03044 14.6954C9.13428 14.6954 10.0319 13.7982 10.0319 12.694C10.0319 11.5898 9.13428 10.6926 8.03044 10.6926C6.92627 10.6926 6.02901 11.5898 6.02901 12.694Z" stroke="#005DA8"/>
<path d="M5.66408 20.8835C5.66408 19.579 6.72598 18.5171 8.03044 18.5171C9.33466 18.5171 10.3968 19.579 10.3968 20.8835C10.3968 22.1879 9.33466 23.2498 8.03044 23.2498C6.72598 23.2498 5.66408 22.1879 5.66408 20.8835ZM6.02901 20.8835C6.02901 21.9876 6.92627 22.8849 8.03044 22.8849C9.13428 22.8849 10.0319 21.9877 10.0319 20.8835C10.0319 19.7792 9.13428 18.882 8.03044 18.882C6.92627 18.882 6.02901 19.7793 6.02901 20.8835Z" stroke="#005DA8"/>
<path d="M5.66408 29.0731C5.66408 27.7687 6.72598 26.7068 8.03044 26.7068C9.33466 26.7068 10.3968 27.7687 10.3968 29.0731C10.3968 30.3776 9.33466 31.4395 8.03044 31.4395C6.72598 31.4395 5.66408 30.3776 5.66408 29.0731ZM6.02901 29.0731C6.02901 30.1773 6.92627 31.0746 8.03044 31.0746C9.13428 31.0746 10.0319 30.1774 10.0319 29.0731C10.0319 27.9689 9.13428 27.0717 8.03044 27.0717C6.92627 27.0717 6.02901 27.969 6.02901 29.0731Z" stroke="#005DA8"/>
<path d="M13.8997 14.6953H21.7251C21.8262 14.6953 21.9078 14.7772 21.9078 14.8778C21.9078 14.9785 21.826 15.0602 21.7254 15.0602H13.8997C13.7988 15.0602 13.7172 14.9786 13.7172 14.8778C13.7172 14.777 13.7988 14.6953 13.8997 14.6953Z" stroke="#005DA8"/>
<path d="M13.8997 11.4194H21.7251C21.8262 11.4194 21.9078 11.5013 21.9078 11.6019C21.9078 11.7026 21.826 11.7844 21.7254 11.7844H13.8997C13.7988 11.7844 13.7172 11.7027 13.7172 11.6019C13.7172 11.5011 13.7988 11.4194 13.8997 11.4194Z" stroke="#005DA8"/>
<path d="M13.8997 22.885H21.7251C21.8262 22.885 21.9078 22.9669 21.9078 23.0675C21.9078 23.1682 21.826 23.2499 21.7254 23.2499H13.8997C13.7988 23.2499 13.7172 23.1683 13.7172 23.0675C13.7172 22.9667 13.7988 22.885 13.8997 22.885Z" stroke="#005DA8"/>
<path d="M13.8997 19.6091H21.7251C21.8262 19.6091 21.9078 19.691 21.9078 19.7916C21.9078 19.8923 21.826 19.9741 21.7254 19.9741H13.8997C13.7988 19.9741 13.7172 19.8924 13.7172 19.7916C13.7172 19.6908 13.7988 19.6091 13.8997 19.6091Z" stroke="#005DA8"/>
<path d="M13.8997 31.0745H21.7251C21.8262 31.0745 21.9078 31.1564 21.9078 31.2569C21.9078 31.3576 21.826 31.4394 21.7254 31.4394H13.8997C13.7988 31.4394 13.7172 31.3577 13.7172 31.2569C13.7172 31.1561 13.7988 31.0745 13.8997 31.0745Z" stroke="#005DA8"/>
<path d="M13.8997 27.7986H21.7251C21.8262 27.7986 21.9078 27.8805 21.9078 27.9811C21.9078 28.0817 21.826 28.1635 21.7254 28.1635H13.8997C13.7988 28.1635 13.7172 28.0819 13.7172 27.9811C13.7172 27.8802 13.7988 27.7986 13.8997 27.7986Z" stroke="#005DA8"/>
</svg>
