<svg width="36" height="36" viewBox="0 0 36 36" fill="none" xmlns="http://www.w3.org/2000/svg">
<path d="M20.7625 4.63708V5.13708H21.2625H24.9478C26.5532 5.13708 27.8601 6.44397 27.8601 8.04941V10.3471C27.8601 10.448 27.7785 10.5296 27.6777 10.5296C27.5768 10.5296 27.4952 10.448 27.4952 10.3471V8.04941C27.4952 6.64426 26.3529 5.50201 24.9478 5.50201H21.2625H20.7625V6.00201V6.95746C20.7625 7.05828 20.6808 7.13993 20.58 7.13993H8.56858C8.46777 7.13993 8.38612 7.05828 8.38612 6.95746V6.00201V5.50201H7.88612H4.20079C3.10538 5.50201 2.41991 5.77655 2.02944 6.23281C1.65278 6.67294 1.65322 7.17197 1.65339 7.35618C1.65339 7.3599 1.65339 7.36349 1.65339 7.36694V31.7993C1.65339 33.2044 2.79565 34.3467 4.20079 34.3467H24.9478C26.3529 34.3467 27.4952 33.2044 27.4952 31.7993V16.3528C27.4952 16.252 27.5768 16.1704 27.6777 16.1704C27.7785 16.1704 27.8601 16.252 27.8601 16.3528V31.7993C27.8601 33.4047 26.5532 34.7116 24.9478 34.7116H4.20079C2.59535 34.7116 1.28846 33.4047 1.28846 31.7993V7.36694C1.28846 6.6484 1.5501 6.11592 2.00571 5.75143C2.47562 5.3755 3.20501 5.13708 4.20079 5.13708H7.88612H8.38612V4.63708V4.46139C8.38612 3.64714 9.04924 2.98384 9.86367 2.98384H11.1292H11.4568L11.5876 2.68343C12.0866 1.53722 13.2307 0.769287 14.5084 0.769287H14.6401C15.9179 0.769287 17.0619 1.53722 17.561 2.68343L17.6918 2.98384H18.0194H19.2849C20.0993 2.98384 20.7625 3.64714 20.7625 4.46139V4.63708ZM19.8975 6.775H20.3975V6.275V4.46139C20.3975 3.84777 19.8994 3.34877 19.2852 3.34877H17.5377C17.4553 3.34877 17.3832 3.29346 17.3618 3.21447L17.3617 3.21418C17.029 1.98864 15.9103 1.13422 14.6401 1.13422H14.5084C13.2383 1.13422 12.1195 1.98863 11.7871 3.2143C11.7654 3.2937 11.6933 3.34877 11.6109 3.34877H9.86367C9.24976 3.34877 8.75105 3.84748 8.75105 4.46139V6.275V6.775H9.25105H19.8975Z" stroke="#005DA8"/>
<path d="M27.1951 13.685C27.322 13.8122 27.4982 13.8852 27.6777 13.8852C27.8571 13.8852 28.0333 13.8122 28.1602 13.685C28.2871 13.5581 28.3601 13.3821 28.3601 13.2019C28.3601 13.0225 28.2871 12.8463 28.1602 12.7194C28.0333 12.5925 27.8571 12.5203 27.6777 12.5203C27.4982 12.5203 27.322 12.5925 27.1951 12.7194C27.0682 12.8471 26.9952 13.0225 26.9952 13.2019C26.9952 13.3821 27.0682 13.5576 27.1951 13.685ZM27.1951 13.685L27.5494 13.3322C27.5152 13.2978 27.4952 13.2489 27.4952 13.2019C27.4952 13.1564 27.5147 13.1075 27.5492 13.0724C27.5814 13.0406 27.6297 13.0203 27.6777 13.0203C27.7258 13.0203 27.7745 13.0408 27.8066 13.073L27.8066 13.073C27.8398 13.1062 27.8601 13.1552 27.8601 13.2019C27.8601 13.2495 27.8398 13.2983 27.8066 13.3314L27.8063 13.3318C27.7732 13.365 27.7243 13.3852 27.6777 13.3852C27.631 13.3852 27.5821 13.365 27.5491 13.3318L27.1951 13.685Z" stroke="#005DA8"/>
<path d="M34.9193 22.7981L34.9193 22.7981C34.9525 22.7649 35.0016 22.7446 35.0483 22.7446C35.095 22.7446 35.1441 22.7649 35.1773 22.7981L35.1773 22.7981C35.2105 22.8313 35.2308 22.8804 35.2308 22.9271C35.2308 22.9738 35.2105 23.0229 35.1773 23.0561L35.1773 23.0561C35.1441 23.0893 35.095 23.1096 35.0483 23.1096C35.0016 23.1096 34.9525 23.0893 34.9193 23.0561L34.9193 23.0561C34.8861 23.0229 34.8658 22.9738 34.8658 22.9271C34.8658 22.8804 34.8861 22.8313 34.9193 22.7981Z" stroke="#005DA8"/>
<path d="M35.6713 12.9237L33.4874 8.04351C33.3773 7.79798 33.1334 7.63989 32.8644 7.63989C32.5954 7.63989 32.3515 7.79798 32.2414 8.04351L35.6713 12.9237ZM35.6713 12.9237C35.7105 13.0111 35.7308 13.1063 35.7308 13.2023V20.1837C35.7308 20.5606 35.4253 20.8662 35.0483 20.8662C34.6713 20.8662 34.3658 20.5606 34.3658 20.1837V14.3847L33.031 8.24774L33.0311 8.2479C33.0015 8.18203 32.9361 8.13989 32.8644 8.13989C32.7927 8.13989 32.7272 8.18209 32.6976 8.24803L32.6978 8.24774L32.2414 8.04352L32.6976 8.24809L30.5139 13.1279L30.5138 13.1282C30.5036 13.1509 30.498 13.1764 30.498 13.2023V33.5822C30.498 34.2044 31.0052 34.7116 31.6274 34.7116H34.1014C34.7236 34.7116 35.2308 34.2044 35.2308 33.5822V25.9073C35.2308 25.8065 35.1491 25.7249 35.0483 25.7249C34.9475 25.7249 34.8658 25.8065 34.8658 25.9073V30.679V31.179H34.3658H31.363H30.863V30.679V13.8847V13.3847H31.363H34.3658H34.8658V13.8847V20.1837C34.8658 20.2845 34.9475 20.3662 35.0483 20.3662C35.1491 20.3662 35.2308 20.2845 35.2308 20.1837V13.2023C35.2308 13.1764 35.2253 13.1509 35.215 13.1282L35.6713 12.9237ZM35.6713 12.9237L35.2149 13.1279L33.0312 8.24809L35.6713 12.9237ZM33.3208 9.78881L32.8644 8.76912L32.408 9.78881L31.2772 12.3155L30.962 13.0198H31.7335H33.9953H34.7669L34.4517 12.3155L33.3208 9.78881ZM34.8658 32.0439V31.5439H34.3658H31.363H30.863V32.0439V33.5822C30.863 34.0041 31.2055 34.3466 31.6274 34.3466H34.1014C34.5233 34.3466 34.8658 34.0041 34.8658 33.5822V32.0439Z" stroke="#005DA8"/>
<path d="M6.45254 12.9633C6.45254 11.6588 7.51444 10.5969 8.8189 10.5969C10.1231 10.5969 11.1853 11.6589 11.1853 12.9633C11.1853 14.2677 10.1231 15.3296 8.8189 15.3296C7.51444 15.3296 6.45254 14.2677 6.45254 12.9633ZM6.81747 12.9633C6.81747 14.0675 7.71473 14.9647 8.8189 14.9647C9.92274 14.9647 10.8203 14.0675 10.8203 12.9633C10.8203 11.8591 9.92274 10.9619 8.8189 10.9619C7.71473 10.9619 6.81747 11.8591 6.81747 12.9633Z" stroke="#005DA8"/>
<path d="M6.45254 21.1527C6.45254 19.8483 7.51444 18.7864 8.8189 18.7864C10.1231 18.7864 11.1853 19.8483 11.1853 21.1527C11.1853 22.4572 10.1231 23.5191 8.8189 23.5191C7.51444 23.5191 6.45254 22.4572 6.45254 21.1527ZM6.81747 21.1527C6.81747 22.2569 7.71473 23.1542 8.8189 23.1542C9.92274 23.1542 10.8203 22.257 10.8203 21.1527C10.8203 20.0485 9.92274 19.1513 8.8189 19.1513C7.71473 19.1513 6.81747 20.0486 6.81747 21.1527Z" stroke="#005DA8"/>
<path d="M6.45254 29.3424C6.45254 28.038 7.51444 26.9761 8.8189 26.9761C10.1231 26.9761 11.1853 28.038 11.1853 29.3424C11.1853 30.6469 10.1231 31.7088 8.8189 31.7088C7.51444 31.7088 6.45254 30.6469 6.45254 29.3424ZM6.81747 29.3424C6.81747 30.4466 7.71473 31.3439 8.8189 31.3439C9.92274 31.3439 10.8203 30.4467 10.8203 29.3424C10.8203 28.2382 9.92274 27.341 8.8189 27.341C7.71473 27.341 6.81747 28.2383 6.81747 29.3424Z" stroke="#005DA8"/>
<path d="M14.6881 14.9646H22.5136C22.6146 14.9646 22.6963 15.0465 22.6963 15.1471C22.6963 15.2478 22.6145 15.3295 22.5138 15.3295H14.6881C14.5873 15.3295 14.5056 15.2479 14.5056 15.1471C14.5056 15.0463 14.5873 14.9646 14.6881 14.9646Z" stroke="#005DA8"/>
<path d="M14.6881 11.6887H22.5136C22.6146 11.6887 22.6963 11.7706 22.6963 11.8712C22.6963 11.9719 22.6145 12.0537 22.5138 12.0537H14.6881C14.5873 12.0537 14.5056 11.972 14.5056 11.8712C14.5056 11.7704 14.5873 11.6887 14.6881 11.6887Z" stroke="#005DA8"/>
<path d="M14.6881 23.1543H22.5136C22.6146 23.1543 22.6963 23.2362 22.6963 23.3368C22.6963 23.4375 22.6145 23.5192 22.5138 23.5192H14.6881C14.5873 23.5192 14.5056 23.4376 14.5056 23.3368C14.5056 23.2359 14.5873 23.1543 14.6881 23.1543Z" stroke="#005DA8"/>
<path d="M14.6881 19.8784H22.5136C22.6146 19.8784 22.6963 19.9603 22.6963 20.0609C22.6963 20.1616 22.6145 20.2434 22.5138 20.2434H14.6881C14.5873 20.2434 14.5056 20.1617 14.5056 20.0609C14.5056 19.9601 14.5873 19.8784 14.6881 19.8784Z" stroke="#005DA8"/>
<path d="M14.6881 31.3438H22.5136C22.6146 31.3438 22.6963 31.4257 22.6963 31.5262C22.6963 31.6269 22.6145 31.7087 22.5138 31.7087H14.6881C14.5873 31.7087 14.5056 31.627 14.5056 31.5262C14.5056 31.4254 14.5873 31.3438 14.6881 31.3438Z" stroke="#005DA8"/>
<path d="M14.6881 28.0679H22.5136C22.6146 28.0679 22.6963 28.1498 22.6963 28.2503C22.6963 28.351 22.6145 28.4328 22.5138 28.4328H14.6881C14.5873 28.4328 14.5056 28.3512 14.5056 28.2503C14.5056 28.1495 14.5873 28.0679 14.6881 28.0679Z" stroke="#005DA8"/>
</svg>
