<svg width="36" height="36" viewBox="0 0 36 36" fill="none" xmlns="http://www.w3.org/2000/svg">
<g clip-path="url(#clip0)">
<path d="M24.6842 32.8368L24.6852 34.0424L25.5377 33.1899L28.8963 29.8313L29.7488 28.9789L28.5432 28.9778L25.1816 28.9747L24.6807 28.9743L24.6811 29.4752L24.6842 32.8368ZM29.5254 28.5866L30.0259 28.587V28.0866V1.66138V1.16138H29.5259H6.99347H6.49347V1.66138V33.8195V34.3195H6.99347H23.7929H24.2933L24.2929 33.819L24.2884 28.7783C24.2884 28.7783 24.2884 28.7782 24.2884 28.7782C24.2884 28.7262 24.309 28.6762 24.3459 28.6393L23.9922 28.2859L24.3457 28.6395C24.3826 28.6026 24.4325 28.582 24.4844 28.582H24.4844H24.4844H24.4845H24.4845H24.4845H24.4845H24.4845H24.4845H24.4846H24.4846H24.4846H24.4846H24.4846H24.4847H24.4847H24.4847H24.4847H24.4847H24.4847H24.4848H24.4848H24.4848H24.4848H24.4848H24.4848H24.4848H24.4849H24.4849H24.4849H24.4849H24.4849H24.4849H24.485H24.485H24.485H24.485H24.485H24.485L29.5254 28.5866ZM6.29743 0.769287H30.2218C30.3302 0.769287 30.418 0.857108 30.418 0.965335V28.783C30.418 28.835 30.3973 28.8849 30.3606 28.9216L24.6282 34.654C24.5912 34.691 24.5413 34.7116 24.4894 34.7116H6.29743C6.18917 34.7116 6.10138 34.6238 6.10138 34.5155V0.965335C6.10138 0.857076 6.18917 0.769287 6.29743 0.769287Z" stroke="#005DA8"/>
<path d="M15.4076 28.5566V28.5567C15.4076 30.031 14.2075 31.2311 12.7332 31.2311C11.2591 31.2311 10.0589 30.031 10.0589 28.5567C10.0589 27.0824 11.259 25.8823 12.7332 25.8823C14.2076 25.8823 15.4078 27.0825 15.4076 28.5566ZM10.451 28.5567C10.451 29.8156 11.4743 30.8391 12.7332 30.8391C13.9923 30.8391 15.0156 29.8156 15.0156 28.5567C15.0156 27.2978 13.9921 26.2745 12.7332 26.2745C11.4743 26.2745 10.451 27.2979 10.451 28.5567Z" stroke="#005DA8"/>
<path d="M17.9812 28.4727H21.8095C21.9178 28.4727 22.0056 28.5604 22.0056 28.6687C22.0056 28.777 21.9178 28.8648 21.8095 28.8648H17.9812C17.8729 28.8648 17.7851 28.777 17.7851 28.6687C17.7851 28.5604 17.8729 28.4727 17.9812 28.4727Z" stroke="#005DA8"/>
<path d="M10.4637 4.94556H12.4823C12.5905 4.94556 12.6783 5.03335 12.6783 5.1416C12.6783 5.24986 12.5905 5.33765 12.4823 5.33765H10.4637C10.3554 5.33765 10.2676 5.24986 10.2676 5.1416C10.2676 5.03334 10.3554 4.94556 10.4637 4.94556Z" stroke="#005DA8"/>
<path d="M20.2782 4.94556H26.334C26.4422 4.94556 26.53 5.03335 26.53 5.1416C26.53 5.24986 26.4422 5.33765 26.334 5.33765H20.2782C20.17 5.33765 20.0822 5.24986 20.0822 5.1416C20.0822 5.03335 20.17 4.94556 20.2782 4.94556Z" stroke="#005DA8"/>
<path d="M16.0323 7.93872H26.334C26.4422 7.93872 26.53 8.02651 26.53 8.13477C26.53 8.24303 26.4422 8.33082 26.334 8.33082H16.0323C15.924 8.33082 15.8362 8.24303 15.8362 8.13477C15.8362 8.02651 15.924 7.93872 16.0323 7.93872Z" stroke="#005DA8"/>
<path d="M10.1505 13.4375H26.3687C26.4769 13.4375 26.5647 13.5252 26.5647 13.6335C26.5647 13.7418 26.4769 13.8296 26.3687 13.8296H10.1505C10.0422 13.8296 9.95442 13.7418 9.95442 13.6335C9.95442 13.5253 10.0422 13.4375 10.1505 13.4375Z" stroke="#005DA8"/>
<path d="M26.5647 16.0002V16.0002C26.5647 16.1085 26.4769 16.1963 26.3687 16.1963H10.1505C10.0422 16.1963 9.95442 16.1085 9.95442 16.0002C9.95442 15.892 10.0422 15.8042 10.1505 15.8042H26.3687C26.477 15.8042 26.5647 15.892 26.5647 16.0002Z" stroke="#005DA8"/>
<path d="M26.5647 18.5756V18.5757C26.5647 18.6839 26.4769 18.7717 26.3687 18.7717H10.1505C10.0422 18.7717 9.95442 18.6839 9.95442 18.5757C9.95442 18.4674 10.0422 18.3796 10.1505 18.3796H26.3687C26.477 18.3796 26.5647 18.4674 26.5647 18.5756Z" stroke="#005DA8"/>
<path d="M25.9859 20.7463H26.3687C26.477 20.7463 26.5648 20.8341 26.5648 20.9424C26.5648 21.0507 26.477 21.1384 26.3687 21.1384H25.9859C25.8776 21.1384 25.7898 21.0507 25.7898 20.9424C25.7898 20.8341 25.8776 20.7463 25.9859 20.7463Z" stroke="#005DA8"/>
<path d="M10.1505 20.7463H23.5497C23.6579 20.7463 23.7457 20.8341 23.7457 20.9424C23.7457 21.0507 23.6579 21.1384 23.5497 21.1384H10.1505C10.0422 21.1384 9.95442 21.0507 9.95442 20.9424C9.95442 20.8341 10.0422 20.7463 10.1505 20.7463Z" stroke="#005DA8"/>
</g>
<defs>
<clipPath id="clip0">
<rect width="34.9423" height="34.9423" fill="white" transform="translate(0.78846 0.269287)"/>
</clipPath>
</defs>
</svg>
