<svg width="1444" height="430" viewBox="0 0 1444 430" fill="none" xmlns="http://www.w3.org/2000/svg">
<g filter="url(#filter0_d)">
<path d="M920.072 201.032H867.806V233.357H920.072V201.032Z" fill="white"/>
<path fill-rule="evenodd" clip-rule="evenodd" d="M867.941 233.6H828.656V200.882H828.84L828.695 201.028H867.941V233.6Z" fill="#C9D2D7"/>
<path fill-rule="evenodd" clip-rule="evenodd" d="M867.757 201.024H828.692L848.225 181.103L867.757 201.024Z" fill="#C9D2D7"/>
<path fill-rule="evenodd" clip-rule="evenodd" d="M848.231 181.103L867.748 201.01L920.13 201.11L900.042 181.415L848.231 181.103Z" fill="#5E8BA8"/>
<path d="M883.614 212.109H875.937V227.57H883.614V212.109Z" fill="#B1C7D5"/>
<path d="M906.577 212.109H898.9V227.57H906.577V212.109Z" fill="#B1C7D5"/>
<path d="M255.587 206.721H218.669V230.712H255.587V206.721Z" fill="white"/>
<path fill-rule="evenodd" clip-rule="evenodd" d="M218.749 230.854H191V206.571H191.13L191.028 206.679H218.749V230.854Z" fill="#B1C7D5"/>
<path fill-rule="evenodd" clip-rule="evenodd" d="M218.631 206.7H191.037L204.834 191.916L218.631 206.7Z" fill="#B1C7D5"/>
<path fill-rule="evenodd" clip-rule="evenodd" d="M204.815 191.916L218.601 206.69L255.602 206.765L241.413 192.147L204.815 191.916Z" fill="#384B57"/>
<path d="M229.813 214.934H224.39V226.41H229.813V214.934Z" fill="#B1C7D5"/>
<path d="M246.038 214.934H240.615V226.41H246.038V214.934Z" fill="#B1C7D5"/>
<path d="M438.378 141.169H488.879V232.222H438.378V141.169Z" fill="white"/>
<path fill-rule="evenodd" clip-rule="evenodd" d="M526.686 141.029H526.724V232.221H488.766V140.794L526.686 141.437L526.546 141.029H488.941L507.814 126.364L526.686 141.029Z" fill="#B1C7D5"/>
<path fill-rule="evenodd" clip-rule="evenodd" d="M507.814 126.364L488.956 141.138L438.342 141.213L457.752 126.595L507.814 126.364Z" fill="#384B57"/>
<path d="M473.631 149.382H481.049V164.715H473.631V149.382Z" fill="#B1C7D5"/>
<path d="M473.631 174.247H481.049V189.58H473.631V174.247Z" fill="#B1C7D5"/>
<path d="M473.631 200.128H481.049V215.462H473.631V200.128Z" fill="#B1C7D5"/>
<path d="M451.421 149.382H458.839V164.715H451.421V149.382Z" fill="#B1C7D5"/>
<path d="M451.421 174.247H458.839V189.58H451.421V174.247Z" fill="#B1C7D5"/>
<path d="M451.421 200.128H458.839V215.462H451.421V200.128Z" fill="#B1C7D5"/>
<path d="M748.877 206.721H711.959V230.712H748.877V206.721Z" fill="white"/>
<path fill-rule="evenodd" clip-rule="evenodd" d="M712.039 230.854H684.29V206.571H684.42L684.318 206.679H712.039V230.854Z" fill="#B1C7D5"/>
<path fill-rule="evenodd" clip-rule="evenodd" d="M711.921 206.7H684.327L698.124 191.916L711.921 206.7Z" fill="#B1C7D5"/>
<path fill-rule="evenodd" clip-rule="evenodd" d="M698.105 191.916L711.891 206.69L748.892 206.765L734.703 192.147L698.105 191.916Z" fill="#384B57"/>
<path d="M723.103 214.934H717.68V226.41H723.103V214.934Z" fill="#B1C7D5"/>
<path d="M739.328 214.934H733.905V226.41H739.328V214.934Z" fill="#B1C7D5"/>
<path d="M1011.02 134.576H957.211V232.266H1011.02V134.576Z" fill="white"/>
<path fill-rule="evenodd" clip-rule="evenodd" d="M957.335 232.264H916.894V134.426H917.084L916.934 134.863H957.335V232.264Z" fill="#B1C7D5"/>
<path fill-rule="evenodd" clip-rule="evenodd" d="M957.145 134.541H916.93L937.038 118.678L957.145 134.541Z" fill="#B1C7D5"/>
<path fill-rule="evenodd" clip-rule="evenodd" d="M937.033 118.678L957.125 134.53L1011.05 134.61L990.37 118.927L937.033 118.678Z" fill="#384B57"/>
<path d="M973.47 143.354H965.568V159.806H973.47V143.354Z" fill="#B1C7D5"/>
<path d="M973.47 170.027H965.568V186.478H973.47V170.027Z" fill="#B1C7D5"/>
<path d="M973.47 197.793H965.568V214.244H973.47V197.793Z" fill="#B1C7D5"/>
<path d="M997.111 143.354H989.208V159.806H997.111V143.354Z" fill="#B1C7D5"/>
<path d="M997.111 170.027H989.208V186.478H997.111V170.027Z" fill="#B1C7D5"/>
<path d="M997.111 197.793H989.208V214.244H997.111V197.793Z" fill="#B1C7D5"/>
<path d="M1223.99 206.721H1187.07V230.712H1223.99V206.721Z" fill="white"/>
<path fill-rule="evenodd" clip-rule="evenodd" d="M1187.15 230.854H1159.4V206.571H1159.53L1159.43 206.679H1187.15V230.854Z" fill="#B1C7D5"/>
<path fill-rule="evenodd" clip-rule="evenodd" d="M1187.03 206.7H1159.44L1173.23 191.916L1187.03 206.7Z" fill="#B1C7D5"/>
<path fill-rule="evenodd" clip-rule="evenodd" d="M1173.21 191.916L1187 206.69L1224 206.765L1209.81 192.147L1173.21 191.916Z" fill="#384B57"/>
<path d="M1198.21 214.934H1192.79V226.41H1198.21V214.934Z" fill="#B1C7D5"/>
<path d="M1214.44 214.934H1209.01V226.41H1214.44V214.934Z" fill="#B1C7D5"/>
<path fill-rule="evenodd" clip-rule="evenodd" d="M760.395 68.2962H760.202V248.743H770.247C765.106 248.743 760.88 242.085 760.434 233.607C760.879 242.068 765.091 248.716 770.247 248.743H856.169V235.386L856.192 235.189C856.304 234.2 856.362 233.172 856.362 232.122V20.6212C856.362 11.4654 851.964 4.02829 846.51 4H760.395V68.2962ZM856.008 236.529L856.009 236.528L856.008 236.529ZM856.023 236.442L856.024 236.435L856.023 236.442ZM856.036 236.355L856.039 236.341L856.036 236.355ZM856.05 236.268V236.269L856.053 236.247L856.05 236.268ZM856.063 236.181V236.181L856.067 236.155L856.063 236.181ZM856.076 236.093V236.094L856.08 236.062L856.076 236.093ZM856.088 236.006V236.006L856.093 235.97L856.088 236.006ZM856.101 235.918V235.918L856.106 235.878L856.101 235.918ZM856.113 235.829V235.83L856.119 235.786L856.113 235.829ZM856.125 235.741L856.131 235.694L856.125 235.741ZM856.136 235.653V235.653L856.143 235.601L856.136 235.653ZM856.148 235.564V235.565L856.155 235.505L856.148 235.564ZM760.429 233.502L760.434 233.606L760.429 233.505V233.502ZM760.424 233.397L760.428 233.493L760.424 233.399V233.397ZM760.419 233.292L760.423 233.38L760.419 233.294V233.292ZM760.415 233.186L760.418 233.268L760.415 233.188V233.186ZM760.411 233.081L760.414 233.157L760.411 233.082L760.411 233.081ZM760.408 232.975L760.41 233.045L760.408 232.976V232.975ZM760.405 232.869L760.407 232.934L760.405 232.87V232.869ZM760.402 232.763L760.404 232.823L760.402 232.763V232.763ZM760.4 232.656L760.401 232.713L760.4 232.656ZM760.398 232.55L760.399 232.602L760.398 232.55ZM760.397 232.443L760.397 232.492L760.397 232.443ZM760.396 232.336L760.396 232.38L760.396 232.336ZM760.395 232.228V232.265V232.229V232.228Z" fill="#B0C6D4"/>
<path d="M709.36 4H684.29V248.742H709.36V4Z" fill="#B0C6D4"/>
<path d="M753.72 66.8394H681.241V126.383H753.72V66.8394Z" fill="white"/>
<path fill-rule="evenodd" clip-rule="evenodd" d="M683.979 68.2962H684.304V248.743H667.37C676.037 248.743 683.161 242.085 683.913 233.607C683.163 242.068 676.062 248.716 667.37 248.743H522.519V235.386L522.48 235.189C522.292 234.2 522.194 233.172 522.194 232.122V20.6212C522.194 11.4654 529.608 4.02829 538.802 4H683.979V68.2962ZM522.79 236.529L522.789 236.528L522.79 236.529ZM522.766 236.442L522.764 236.435L522.766 236.442ZM522.743 236.355L522.739 236.341L522.743 236.355ZM522.72 236.268V236.269L522.714 236.247L522.72 236.268ZM522.698 236.181V236.181L522.691 236.155L522.698 236.181ZM522.676 236.093V236.094L522.669 236.062L522.676 236.093ZM522.655 236.006V236.006L522.646 235.97L522.655 236.006ZM522.634 235.918V235.918L522.625 235.878L522.634 235.918ZM522.614 235.829V235.83L522.604 235.786L522.614 235.829ZM522.594 235.741L522.583 235.694L522.594 235.741ZM522.574 235.653V235.653L522.563 235.601L522.574 235.653ZM522.555 235.564V235.565L522.543 235.505L522.555 235.564ZM683.922 233.502L683.913 233.606L683.922 233.505V233.502ZM683.931 233.397L683.923 233.493L683.931 233.399V233.397ZM683.938 233.292L683.932 233.38L683.938 233.294V233.292ZM683.945 233.186L683.94 233.268L683.945 233.188V233.186ZM683.952 233.081L683.947 233.157L683.951 233.082L683.952 233.081ZM683.957 232.975L683.954 233.045L683.957 232.976V232.975ZM683.962 232.869L683.959 232.934L683.962 232.87V232.869ZM683.967 232.763L683.964 232.823L683.967 232.763V232.763ZM683.97 232.656L683.968 232.713L683.97 232.656ZM683.974 232.55L683.972 232.602L683.974 232.55ZM683.975 232.443L683.975 232.492L683.975 232.443ZM683.977 232.336L683.977 232.38L683.977 232.336ZM683.978 232.228V232.265V232.229V232.228Z" fill="white"/>
<path d="M671.461 21.8196H534.617V42.3944H671.461V21.8196Z" fill="#8FB1C7"/>
<path fill-rule="evenodd" clip-rule="evenodd" d="M742.326 68.2962H742.133V248.743H752.177C747.037 248.743 742.811 242.085 742.365 233.607C742.81 242.068 747.022 248.716 752.177 248.743H838.1V235.386L838.123 235.189C838.235 234.2 838.293 233.172 838.293 232.122V20.6212C838.293 11.4654 833.895 4.02829 828.441 4H742.326V68.2962ZM837.939 236.529L837.94 236.528L837.939 236.529ZM837.953 236.442L837.955 236.435L837.953 236.442ZM837.967 236.355L837.969 236.341L837.967 236.355ZM837.981 236.268V236.269L837.984 236.247L837.981 236.268ZM837.994 236.181V236.181L837.998 236.155L837.994 236.181ZM838.007 236.093V236.094L838.011 236.062L838.007 236.093ZM838.019 236.006V236.006L838.024 235.97L838.019 236.006ZM838.032 235.918V235.918L838.037 235.878L838.032 235.918ZM838.044 235.829V235.83L838.05 235.786L838.044 235.829ZM838.056 235.741L838.062 235.694L838.056 235.741ZM838.067 235.653V235.653L838.074 235.601L838.067 235.653ZM838.078 235.564V235.565L838.086 235.505L838.078 235.564ZM742.359 233.502L742.365 233.606L742.359 233.505V233.502ZM742.354 233.397L742.359 233.493L742.354 233.399V233.397ZM742.35 233.292L742.354 233.38L742.35 233.294V233.292ZM742.346 233.186L742.349 233.268L742.346 233.188V233.186ZM742.342 233.081L742.345 233.157L742.342 233.082L742.342 233.081ZM742.339 232.975L742.341 233.045L742.339 232.976V232.975ZM742.336 232.869L742.338 232.934L742.336 232.87V232.869ZM742.333 232.763L742.335 232.823L742.333 232.763V232.763ZM742.331 232.656L742.332 232.713L742.331 232.656ZM742.329 232.55L742.33 232.602L742.329 232.55ZM742.328 232.443L742.328 232.492L742.328 232.443ZM742.327 232.336L742.327 232.38L742.327 232.336ZM742.326 232.228V232.265V232.229V232.228Z" fill="white"/>
<path d="M828.864 21.8196H756.266V42.3944H828.864V21.8196Z" fill="#8FB1C7"/>
<path d="M671.461 124.555H534.617V145.13H671.461V124.555Z" fill="#8FB1C7"/>
<path d="M828.864 124.555H756.266V145.13H828.864V124.555Z" fill="#8FB1C7"/>
<path d="M827.817 72.8296H534.617V93.4043H827.817V72.8296Z" fill="#8FB1C7"/>
<path d="M671.461 46.7217H534.617V67.2965H671.461V46.7217Z" fill="#8FB1C7"/>
<path d="M828.864 46.7217H756.266V67.2965H828.864V46.7217Z" fill="#8FB1C7"/>
<path d="M671.461 149.458H534.617V170.032H671.461V149.458Z" fill="#8FB1C7"/>
<path d="M828.864 149.458H756.266V170.032H828.864V149.458Z" fill="#8FB1C7"/>
<path d="M671.461 175.49H534.617V196.065H671.461V175.49Z" fill="#8FB1C7"/>
<path d="M828.864 175.49H756.266V196.065H828.864V175.49Z" fill="#8FB1C7"/>
<path d="M827.817 97.7317H534.617V118.306H827.817V97.7317Z" fill="#8FB1C7"/>
<path d="M340.169 201.032H392.434V233.357H340.169V201.032Z" fill="white"/>
<path fill-rule="evenodd" clip-rule="evenodd" d="M392.299 233.6H431.584V200.882H431.4L431.545 201.028H392.299V233.6Z" fill="#B1C7D5"/>
<path fill-rule="evenodd" clip-rule="evenodd" d="M392.483 201.024H431.548L412.015 181.103L392.483 201.024Z" fill="#B1C7D5"/>
<path fill-rule="evenodd" clip-rule="evenodd" d="M412.009 181.103L392.492 201.01L340.11 201.11L360.198 181.415L412.009 181.103Z" fill="#5E8BA8"/>
<path d="M376.626 212.109H384.303V227.57H376.626V212.109Z" fill="#B1C7D5"/>
<path d="M353.663 212.109H361.34V227.57H353.663V212.109Z" fill="#B1C7D5"/>
<path d="M1099.56 201.032H1047.29V233.357H1099.56V201.032Z" fill="white"/>
<path fill-rule="evenodd" clip-rule="evenodd" d="M1047.43 233.6H1008.14V200.882H1008.33L1008.18 201.028H1047.43V233.6Z" fill="#B1C7D5"/>
<path fill-rule="evenodd" clip-rule="evenodd" d="M1047.24 201.024H1008.18L1027.71 181.103L1047.24 201.024Z" fill="#B1C7D5"/>
<path fill-rule="evenodd" clip-rule="evenodd" d="M1027.72 181.103L1047.24 201.01L1099.62 201.11L1079.53 181.415L1027.72 181.103Z" fill="#5E8BA8"/>
<path d="M1063.1 212.109H1055.42V227.57H1063.1V212.109Z" fill="#B1C7D5"/>
<path d="M1086.06 212.109H1078.39V227.57H1086.06V212.109Z" fill="#B1C7D5"/>
</g>
<rect x="137" y="230.894" width="387" height="35" rx="17.5" fill="#F0F0F0"/>
<rect x="464" y="229.894" width="893" height="55" rx="27.5" fill="#F9F3ED"/>
<rect x="370" y="398.436" width="158" height="30.7406" rx="15.3703" fill="#F2F2F2"/>
<rect x="289" y="385.894" width="158" height="30.7406" rx="15.3703" fill="#F2F2F2"/>
<rect x="1004" y="397.055" width="158" height="30.7406" rx="15.3703" fill="#F0F0F0"/>
<path fill-rule="evenodd" clip-rule="evenodd" d="M349.259 236.574C346.908 234.024 345.317 230.899 345.583 227.398C346.349 217.311 361.549 219.53 364.506 224.621C367.463 229.713 367.112 242.627 363.29 243.537C361.766 243.9 358.52 243.011 355.216 241.172L357.29 254.726H345.043L349.259 236.574Z" fill="#B28B67"/>
<mask id="mask0" mask-type="alpha" maskUnits="userSpaceOnUse" x="333" y="216" width="31" height="26">
<path d="M363.707 222.647C363.599 222.032 363.812 221.73 361.134 219.997C358.457 218.263 354.134 216.219 349.779 217.109C344.129 218.263 341.884 221.707 339.705 223.381C337.741 224.89 335.77 225.066 334.602 226.938C333.434 228.811 332.813 234.198 333.828 236.34C335.229 239.295 337.992 240.09 340.009 240.942C343.468 242.401 348.357 240.86 348.476 240.604C349.392 238.629 354.323 233.056 357.29 230.714C359.471 228.992 364.21 225.534 363.707 222.647Z" fill="white"/>
</mask>
<g mask="url(#mask0)">
<path d="M363.707 222.647C363.599 222.032 363.812 221.73 361.134 219.997C358.457 218.263 354.134 216.219 349.779 217.109C344.129 218.263 341.884 221.707 339.705 223.381C337.741 224.89 335.77 225.066 334.602 226.938C333.434 228.811 332.813 234.198 333.828 236.34C335.229 239.295 337.992 240.09 340.009 240.942C343.468 242.401 348.357 240.86 348.476 240.604C349.392 238.629 354.323 233.056 357.29 230.714C359.471 228.992 364.21 225.534 363.707 222.647Z" fill="#5C63AB"/>
<path fill-rule="evenodd" clip-rule="evenodd" d="M339.664 222.201C340.582 227.565 342.994 232.471 346.898 236.919C342.345 233.656 339.346 229.094 337.9 223.232L339.664 222.201ZM337.389 224.248C338.896 230.011 342.808 235.457 349.126 240.585C341.815 236.509 337.223 231.248 335.349 224.804L337.389 224.248Z" fill="black" fill-opacity="0.2"/>
</g>
<path fill-rule="evenodd" clip-rule="evenodd" d="M341.987 293.862L379.903 352.419L408.328 401.925H414.451L366.823 293.862L341.987 293.862Z" fill="#997659"/>
<path fill-rule="evenodd" clip-rule="evenodd" d="M404.585 399.64C404.014 401.048 403.728 402.101 403.728 402.8C403.728 403.65 403.882 404.89 404.188 406.521C405.256 406.521 414.849 406.521 432.968 406.521C433.715 404.237 433.284 403.004 431.672 402.822C430.061 402.64 428.723 402.475 427.657 402.329L414.28 396.82C414.023 396.714 413.721 396.821 413.607 397.058C413.605 397.062 413.603 397.067 413.601 397.071L412.741 398.997C411.249 399.64 410.037 399.962 409.105 399.962C408.347 399.962 407.301 399.679 405.965 399.114L405.965 399.114C405.453 398.897 404.847 399.105 404.613 399.578C404.602 399.598 404.593 399.619 404.585 399.64Z" fill="#BABABA"/>
<path fill-rule="evenodd" clip-rule="evenodd" d="M400.434 393.998L412.241 390.698C407.068 376.412 400.727 360.69 393.22 343.533C385.712 326.376 377.649 309.819 369.031 293.862H335.683C345.264 314.047 355.422 332.387 366.156 348.883C376.89 365.38 388.316 380.418 400.434 393.998Z" fill="#005DA8"/>
<path fill-rule="evenodd" clip-rule="evenodd" d="M339.496 293.862C335.917 314.439 329.015 340.73 328.364 341.541C327.93 342.082 312.297 346.921 281.466 356.059L282.788 361.046C319.554 356.146 338.927 352.344 340.906 349.64C343.875 345.585 358.697 313.548 364.439 293.862H339.496Z" fill="#B28B67"/>
<path fill-rule="evenodd" clip-rule="evenodd" d="M292.304 351.747L294.633 359.78C322.132 362.008 338.981 360.398 345.18 354.95C351.38 349.502 358.445 329.14 366.377 293.862H334.578C329.552 322.749 326.743 337.8 326.149 339.012C325.556 340.225 314.274 344.47 292.304 351.747Z" fill="#005DA8"/>
<path fill-rule="evenodd" clip-rule="evenodd" d="M283.328 354.055C281.663 353.825 280.44 353.781 279.658 353.922C278.706 354.094 277.342 354.482 275.565 355.088C275.731 356.049 277.228 364.69 280.054 381.01C282.727 381.222 284.039 380.584 283.992 379.096C283.944 377.608 283.92 376.369 283.918 375.379L287.996 362.218C288.075 361.965 287.908 361.714 287.624 361.659C287.62 361.658 287.615 361.657 287.61 361.657L285.319 361.271C284.367 360.058 283.818 359.031 283.673 358.191C283.555 357.508 283.708 356.509 284.132 355.192L284.132 355.192C284.295 354.687 283.968 354.183 283.402 354.067C283.377 354.062 283.353 354.058 283.328 354.055Z" fill="#BABABA"/>
<path fill-rule="evenodd" clip-rule="evenodd" d="M343.564 245.439C343.683 245.08 343.804 244.721 343.927 244.361L344.38 244.558C344.451 244.49 344.522 244.424 344.594 244.361L358.876 246.401C358.876 253.821 365.267 260.763 369.309 266.736C375.594 276.021 386.776 286.313 379.607 300.108C373.146 312.537 356.318 314.556 329.123 306.163C329.123 299.468 335.079 292.738 335.269 284.598C335.45 276.849 337.018 253.37 343.564 245.439Z" fill="#89CBC7"/>
<path fill-rule="evenodd" clip-rule="evenodd" d="M361.306 296.583C362.261 292.029 362.88 288.989 363.165 287.463C370.774 295.406 375.169 299.424 376.352 299.516C378.576 299.689 380.219 297.867 380.687 298.379C381.46 300.5 379.276 305.81 375.101 306.582C373.107 306.951 370.021 303.153 368.75 301.807C368.25 301.277 365.769 299.536 361.306 296.583ZM374.449 272.305C376.421 272.305 377.481 273.058 378.647 274.578C379.813 276.098 380.917 283.266 379.045 283.266C377.172 283.266 369.327 280.495 369.327 278.632C369.327 276.769 374.68 275.98 374.68 274.578C374.68 273.175 372.477 272.305 374.449 272.305Z" fill="#B28B67"/>
<path fill-rule="evenodd" clip-rule="evenodd" d="M357.324 303.513C357.207 303.9 357.087 304.295 356.965 304.697C334.618 290.268 334.608 272.783 341.254 253.184C336.244 272.479 338.285 288.752 357.324 303.513Z" fill="black" fill-opacity="0.2"/>
<path fill-rule="evenodd" clip-rule="evenodd" d="M434.02 292.705C432.275 290.77 431.093 288.399 431.291 285.742C431.86 278.086 443.142 279.77 445.337 283.634C447.532 287.498 447.271 297.299 444.434 297.99C443.303 298.265 440.893 297.59 438.441 296.194L439.98 306.481H430.891L434.02 292.705Z" fill="#B28B67"/>
<path fill-rule="evenodd" clip-rule="evenodd" d="M449.364 278.277C449.175 277.652 448.669 277.117 447.987 276.959C447.821 276.92 447.651 276.905 447.48 276.911C447.419 276.913 447.402 276.93 447.374 276.89C447.352 276.86 447.352 276.787 447.343 276.752C447.316 276.642 447.282 276.534 447.24 276.429C447.098 276.071 446.858 275.753 446.568 275.486C446.027 274.986 445.296 274.641 444.537 274.578C444.121 274.544 443.709 274.608 443.316 274.736C443.112 274.802 442.915 274.884 442.723 274.975C442.665 275.002 442.478 275.137 442.42 275.128C442.355 275.118 442.227 274.968 442.174 274.93C441.53 274.463 440.734 274.279 439.932 274.285C439.026 274.291 438.153 274.334 437.398 274.856C437.238 274.966 437.086 275.087 436.941 275.214C436.864 275.281 436.79 275.351 436.72 275.423C436.677 275.467 436.636 275.512 436.596 275.558C436.528 275.636 436.539 275.661 436.444 275.607C436.08 275.398 435.659 275.301 435.235 275.35C434.983 275.379 434.737 275.451 434.505 275.545C434.425 275.577 434.242 275.704 434.157 275.706C434.074 275.707 433.893 275.588 433.806 275.558C433.34 275.396 432.837 275.356 432.347 275.431C431.842 275.508 431.345 275.699 430.917 275.962C430.711 276.089 430.531 276.229 430.386 276.417C430.324 276.499 430.268 276.585 430.197 276.66C430.156 276.704 430.074 276.75 430.052 276.805C430.065 276.772 429.499 276.566 429.445 276.553C429.161 276.482 428.871 276.497 428.592 276.583C428.068 276.746 427.617 277.112 427.247 277.486C427.056 277.679 426.89 277.891 426.749 278.118C426.681 278.226 426.619 278.338 426.562 278.452C426.535 278.507 426.517 278.576 426.48 278.626C426.434 278.69 426.402 278.691 426.318 278.719C425.889 278.861 425.498 279.102 425.2 279.426C424.899 279.755 424.704 280.159 424.622 280.585C424.617 280.61 424.614 280.714 424.598 280.728C424.577 280.746 424.491 280.738 424.458 280.742C424.345 280.754 424.233 280.773 424.122 280.798C423.918 280.843 423.719 280.911 423.532 280.998C422.799 281.341 422.275 281.982 422.019 282.705C421.75 283.462 421.755 284.331 422.076 285.074C422.128 285.194 422.19 285.311 422.263 285.421C422.307 285.489 422.321 285.489 422.293 285.56C422.26 285.639 422.201 285.716 422.163 285.793C422.038 286.045 421.951 286.313 421.896 286.586C421.805 287.033 421.76 287.504 421.849 287.955C421.891 288.165 421.963 288.369 422.073 288.556C422.13 288.651 422.195 288.741 422.27 288.825C422.308 288.868 422.349 288.91 422.392 288.949C422.416 288.972 422.449 288.992 422.469 289.017C422.52 289.079 422.531 289.028 422.505 289.119C422.468 289.245 422.385 289.37 422.334 289.493C422.282 289.62 422.234 289.749 422.191 289.879C422.103 290.142 422.029 290.411 421.982 290.683C421.893 291.207 421.909 291.764 422.171 292.245C422.283 292.45 422.444 292.631 422.639 292.771C422.734 292.839 422.838 292.898 422.946 292.947C423.002 292.972 423.073 292.983 423.099 293.034C423.126 293.088 423.085 293.197 423.076 293.258C422.995 293.791 422.955 294.35 423.123 294.871C423.277 295.352 423.617 295.776 424.058 296.057C424.914 296.602 426.067 296.571 426.966 296.135C427.201 296.021 427.42 295.88 427.616 295.714C428.114 296.347 429.139 296.327 429.867 296.146C430.774 295.922 431.502 295.326 431.921 294.543C432.494 295.203 433.698 294.989 434.095 294.273C434.193 294.098 434.25 293.905 434.279 293.71C434.294 293.608 434.284 293.504 434.295 293.402C434.31 293.272 434.402 293.146 434.454 293.021C434.557 292.776 434.621 292.524 434.624 292.26C434.625 292.123 434.607 291.989 434.593 291.852C434.58 291.729 434.616 291.615 434.637 291.494C434.404 291.53 434.121 291.471 433.902 291.407C433.687 291.344 433.485 291.18 433.333 291.029C432.981 290.68 432.766 290.222 432.618 289.767C432.295 288.767 432.428 287.567 433.492 287.018C433.988 286.763 435.475 286.764 436.065 286.89C436.687 287.023 437.391 288.317 437.425 288.439C437.447 288.514 437.436 288.608 437.509 288.658C437.67 288.768 437.936 288.577 438.055 288.482C438.26 288.319 438.406 288.102 438.532 287.882C438.808 287.403 439.03 286.889 439.188 286.364C439.309 285.96 439.386 285.543 439.544 285.148C439.702 284.756 439.95 284.406 440.336 284.183C440.756 283.942 441.237 283.814 441.698 283.662C442.155 283.512 442.604 283.328 442.959 283.008C443.036 282.938 443.112 282.864 443.175 282.781C443.224 282.716 443.273 282.591 443.349 282.549C443.466 282.485 443.637 282.652 443.738 282.713C444.238 283.013 444.656 283.431 444.992 283.889C445.327 284.343 445.601 284.781 445.824 285.288C445.99 285.665 446.093 286.147 446.384 286.455C446.514 286.593 447.48 286.676 447.793 286.556C448.106 286.436 448.457 286.124 448.562 285.928C448.669 285.728 448.695 285.507 448.649 285.288C448.622 285.159 448.567 285.039 448.537 284.912C448.511 284.805 448.488 284.705 448.433 284.607C448.329 284.423 448.152 284.29 447.937 284.234C448.16 284.04 448.345 283.808 448.473 283.548C448.606 283.279 448.718 282.951 448.75 282.655C448.776 282.414 448.736 282.165 448.597 281.958C448.451 281.742 448.192 281.6 447.968 281.465C448.31 281.212 448.603 280.905 448.844 280.564C449.312 279.902 449.601 279.067 449.364 278.277Z" fill="#191847"/>
<path fill-rule="evenodd" clip-rule="evenodd" d="M427.889 336.084L446.099 381.597L458.863 415.143H466.141L448.596 336.084L427.889 336.084Z" fill="#003763"/>
<path fill-rule="evenodd" clip-rule="evenodd" d="M423.388 336.084C423.19 351.7 423.333 372.725 422.872 373.699C422.565 374.348 413.001 381.742 394.182 395.881L397.933 401.906C420.276 388.297 432.019 380.585 433.161 378.772C434.875 376.052 443.483 351.024 447.962 336.084H423.388Z" fill="#003763"/>
<path fill-rule="evenodd" clip-rule="evenodd" d="M387.582 399.954L393.939 395.381L399.044 401.129C399.427 405.471 400.937 410.337 403.575 415.729L402.411 416.652L393.173 406.25L390.595 402.23L390.013 402.692L387.582 399.954Z" fill="#191847"/>
<path fill-rule="evenodd" clip-rule="evenodd" d="M458.188 421.582L458.567 414.069H466.52C470.291 416.573 475.215 418.601 481.291 420.151V421.582H466.899L461.975 420.866V421.582H458.188Z" fill="#191847"/>
<path fill-rule="evenodd" clip-rule="evenodd" d="M459.991 331.559L472.072 339.938C475.349 340.773 478.086 341.812 480.285 343.055C480.804 343.502 481.432 344.407 479.278 344.251C477.124 344.094 474.851 344.021 474.554 344.715C474.257 345.409 475.56 346.239 474.96 347.175C474.559 347.799 472.667 346.234 469.284 342.48L457.32 337.794L459.991 331.559ZM413.606 331.848L421.521 331.877C416.634 346.778 413.996 354.685 413.606 355.596C412.73 357.648 414.584 360.772 415.377 362.451C412.794 363.543 413.07 359.5 409.811 360.931C406.837 362.238 404.575 364.606 401.139 362.604C400.716 362.358 400.253 361.431 401.372 360.706C404.158 358.901 408.174 355.743 408.717 354.703C409.457 353.285 411.086 345.667 413.606 331.848Z" fill="#B28B67"/>
<path fill-rule="evenodd" clip-rule="evenodd" d="M436.098 300.479L439.373 299.949C451.524 309.864 456.515 328.911 471.409 339.001L467.824 343.198C441.986 340.176 435.581 316.943 436.098 300.479Z" fill="#E87613"/>
<path fill-rule="evenodd" clip-rule="evenodd" d="M421.822 339.353C434.953 339.353 444.612 339.353 450.799 339.353C452.123 339.353 451.874 337.547 451.682 336.636C449.473 326.118 440.85 314.781 440.85 299.81L432.491 298.572C425.578 309.074 423.187 322.005 421.822 339.353Z" fill="#DDE3E9"/>
<path fill-rule="evenodd" clip-rule="evenodd" d="M422.054 308.895C420.841 308.566 419.879 307.797 419.17 306.589C416.115 301.382 417.219 298.515 420.484 297.573C423.749 296.631 426.66 298.572 431.862 298.572C432.145 298.572 432.404 298.588 432.639 298.622L435.256 298.763C442.763 322.796 444.834 338.83 441.468 346.865H418.66C417.309 349.842 416.015 352.346 414.781 354.378H408.566C407.981 336.515 412.477 321.354 422.054 308.895Z" fill="#FF9B21"/>
<path fill-rule="evenodd" clip-rule="evenodd" d="M423.626 334.523C424.344 340.192 425.51 344.306 427.124 346.866H418.66C420.236 343.394 421.892 339.28 423.626 334.523H423.626Z" fill="black" fill-opacity="0.1"/>
<path fill-rule="evenodd" clip-rule="evenodd" d="M1137.36 261.655C1139.74 258.873 1141.34 255.463 1141.08 251.642C1140.3 240.633 1124.94 243.054 1121.95 248.611C1118.96 254.168 1119.31 268.262 1123.18 269.256C1124.72 269.652 1128 268.681 1131.34 266.673L1129.24 281.467H1141.62L1137.36 261.655Z" fill="#EAC4A1"/>
<path fill-rule="evenodd" clip-rule="evenodd" d="M1130.72 252.858C1130.25 259.441 1128.99 262.733 1126.96 262.733C1123.91 262.733 1121.32 260.802 1119.98 260.802C1119.01 260.802 1119.23 262.02 1119.87 262.922C1120.41 263.667 1123 264.385 1123 265.54C1123 266.694 1120.95 265.801 1120.95 266.486C1120.95 267.618 1120.59 269.748 1122.56 269.748C1124.56 269.748 1130.28 269.023 1131.26 266.07C1131.89 264.164 1132.3 260.215 1132.48 254.223C1132.6 254.208 1132.73 254.201 1132.85 254.201C1134.56 254.201 1135.95 255.583 1135.95 257.288C1135.95 258.153 1135.59 258.935 1135.02 259.496C1135.73 260.504 1136.53 261.557 1137.45 262.644C1140.91 260.576 1143.47 254.525 1140.09 248.711C1139.16 245.863 1137.05 244.342 1134.55 243.636C1132.53 242.792 1130.43 242.697 1128.66 243.203C1125.18 243.5 1122.08 244.556 1121.2 245.183C1121.2 248.463 1121.84 249.436 1127.28 249.35C1128.62 250.055 1129.65 251.268 1130.72 252.858Z" fill="#191847"/>
<path fill-rule="evenodd" clip-rule="evenodd" d="M1080.3 333.475C1076.6 328.466 1067.34 331.782 1067.35 335.929C1067.36 346.817 1077.32 398.509 1077.84 401.773C1078.36 405.037 1083.94 406.104 1084.26 402.026C1084.78 395.538 1085.74 373.045 1084.78 362.58C1084.5 359.524 1084.2 356.569 1083.9 353.801C1089.14 363.183 1097.1 376.443 1107.79 393.582L1113.73 390.875C1109.06 375.547 1105.24 364.725 1102.25 358.411C1097.14 347.599 1092.35 338.34 1090.33 335.078C1087.67 330.77 1083.35 331.342 1080.3 333.475Z" fill="#EAC4A1"/>
<path fill-rule="evenodd" clip-rule="evenodd" d="M1113.3 382.363L1092.92 334.191C1088.03 326.355 1074.34 335.786 1076 340.331C1079.79 350.649 1099.02 384.055 1100.14 387.129L1113.3 382.363Z" fill="#014B88"/>
<path fill-rule="evenodd" clip-rule="evenodd" d="M1114.97 389.106C1116.1 390.296 1116.81 391.242 1117.11 391.944C1117.47 392.798 1117.86 394.105 1118.27 395.864C1117.27 396.285 1108.34 400.07 1091.48 407.218C1089.81 405.218 1089.69 403.809 1091.11 402.99C1092.53 402.171 1093.71 401.478 1094.64 400.91L1104.74 390.098C1104.93 389.889 1105.26 389.878 1105.47 390.071C1105.47 390.075 1105.48 390.078 1105.48 390.082L1107.1 391.678C1108.76 391.736 1110.03 391.581 1110.9 391.213C1111.6 390.914 1112.45 390.217 1113.46 389.122L1113.46 389.122C1113.84 388.702 1114.49 388.672 1114.91 389.055C1114.93 389.071 1114.95 389.089 1114.97 389.106Z" fill="#AA5B43"/>
<path fill-rule="evenodd" clip-rule="evenodd" d="M1066.83 339.69C1066.83 353.344 1072.83 385.439 1072.84 388.446L1087.37 387.957C1084.83 360.052 1083.76 346.005 1084.16 345.816C1085.05 345.391 1120.85 350.758 1131.59 351.163C1147.08 351.748 1153.48 342.274 1154 324.295H1124.01C1098.36 327.348 1081.51 329.472 1073.44 330.666C1068.26 331.432 1066.83 335.929 1066.83 339.69Z" fill="#005EA8"/>
<path fill-rule="evenodd" clip-rule="evenodd" d="M1085.05 394.337C1085.63 395.873 1085.92 397.023 1085.92 397.786C1085.92 398.713 1085.76 400.067 1085.45 401.847C1084.37 401.847 1074.67 401.847 1056.36 401.847C1055.6 399.354 1056.04 398.008 1057.67 397.81C1059.3 397.611 1060.65 397.431 1061.73 397.271L1075.25 391.259C1075.51 391.143 1075.81 391.26 1075.93 391.519C1075.93 391.524 1075.93 391.528 1075.94 391.533L1076.81 393.636C1078.31 394.337 1079.54 394.688 1080.48 394.688C1081.25 394.688 1082.3 394.38 1083.65 393.763L1083.65 393.763C1084.17 393.526 1084.78 393.753 1085.02 394.269C1085.03 394.291 1085.04 394.314 1085.05 394.337Z" fill="#AA5B43"/>
<path d="M1059.87 401.847H1083.59C1084.59 401.847 1085.4 402.653 1085.4 403.647C1085.4 404.642 1084.59 405.448 1083.59 405.448H1059.87C1058.87 405.448 1058.06 404.642 1058.06 403.647C1058.06 402.653 1058.87 401.847 1059.87 401.847Z" fill="#003763"/>
<path fill-rule="evenodd" clip-rule="evenodd" d="M1155.55 327.252H1100.36C1097.51 327.252 1095.2 329.556 1095.2 332.397V357.605H1158.64C1159.78 357.605 1160.71 356.683 1160.71 355.547V332.397C1160.71 329.556 1158.4 327.252 1155.55 327.252Z" fill="#003763"/>
<path fill-rule="evenodd" clip-rule="evenodd" d="M1100.36 327.252H1099.23C1096.7 327.252 1094.55 329.077 1094.14 331.563L1082.82 400.304H1088.33" fill="#003763"/>
<path d="M1085.4 410.593C1080.27 410.593 1076.12 406.447 1076.12 401.333C1076.12 396.218 1080.27 392.073 1085.4 392.073C1090.53 392.073 1094.68 396.218 1094.68 401.333C1094.68 406.447 1090.53 410.593 1085.4 410.593Z" fill="#191847"/>
<path fill-rule="evenodd" clip-rule="evenodd" d="M1154 409.564C1175.65 409.564 1193.2 392.059 1193.2 370.466C1193.2 348.873 1175.65 331.368 1154 331.368C1132.35 331.368 1114.8 348.873 1114.8 370.466C1114.8 392.059 1132.35 409.564 1154 409.564ZM1154 402.361C1136.34 402.361 1122.02 388.081 1122.02 370.466C1122.02 352.85 1136.34 338.57 1154 338.57C1171.66 338.57 1185.98 352.85 1185.98 370.466C1185.98 388.081 1171.66 402.361 1154 402.361Z" fill="#191847"/>
<path d="M1151.94 336.513H1156.06V404.42H1151.94V336.513Z" fill="#191847"/>
<path d="M1129.2 347.185L1130.66 345.73C1131.06 345.328 1131.71 345.328 1132.12 345.73L1178.8 392.292C1179.2 392.694 1179.2 393.345 1178.8 393.747L1177.34 395.202C1176.94 395.604 1176.29 395.604 1175.88 395.202L1129.2 348.64C1128.8 348.238 1128.8 347.587 1129.2 347.185Z" fill="#191847"/>
<path d="M1119.96 371.495V369.437C1119.96 368.869 1120.42 368.408 1120.99 368.408H1187.01C1187.58 368.408 1188.04 368.869 1188.04 369.437V371.495C1188.04 372.063 1187.58 372.524 1187.01 372.524H1120.99C1120.42 372.524 1119.96 372.063 1119.96 371.495Z" fill="#191847"/>
<path d="M1130.66 395.202L1129.2 393.747C1128.8 393.345 1128.8 392.694 1129.2 392.292L1175.88 345.729C1176.29 345.328 1176.94 345.328 1177.34 345.729L1178.8 347.184C1179.2 347.586 1179.2 348.238 1178.8 348.64L1132.12 395.202C1131.71 395.604 1131.06 395.604 1130.66 395.202Z" fill="#191847"/>
<path fill-rule="evenodd" clip-rule="evenodd" d="M1102.02 317.587L1085.57 329.637C1081.1 330.838 1077.37 332.332 1074.38 334.12C1073.67 334.762 1072.82 336.064 1075.75 335.839C1078.69 335.614 1081.78 335.509 1082.18 336.507C1082.59 337.505 1080.81 338.698 1081.63 340.044C1082.18 340.942 1084.75 338.691 1089.36 333.293L1105.66 326.554L1102.02 317.587ZM1165.19 318.003L1154.41 318.045C1161.07 339.474 1164.66 350.844 1165.19 352.155C1166.38 355.105 1163.86 359.598 1162.78 362.012C1166.29 363.582 1165.92 357.768 1170.36 359.827C1174.41 361.707 1177.49 365.112 1182.17 362.232C1182.74 361.878 1183.37 360.545 1181.85 359.503C1178.06 356.908 1172.59 352.365 1171.85 350.87C1170.84 348.831 1168.62 337.875 1165.19 318.003Z" fill="#EAC4A1"/>
<path fill-rule="evenodd" clip-rule="evenodd" d="M1134.56 272.892L1130.1 272.129C1113.55 286.387 1106.75 313.779 1086.47 328.289L1091.35 334.325C1126.54 329.979 1135.26 296.568 1134.56 272.892Z" fill="#E9386E"/>
<path fill-rule="evenodd" clip-rule="evenodd" d="M1154 328.796C1136.12 328.796 1122.96 328.796 1114.54 328.796C1112.73 328.796 1113.07 326.199 1113.33 324.888C1116.34 309.763 1128.09 293.459 1128.09 271.929L1139.47 270.149C1148.88 285.252 1152.14 303.847 1154 328.796Z" fill="#DDE3E9"/>
<path fill-rule="evenodd" clip-rule="evenodd" d="M1153.68 284.995C1155.34 284.521 1156.65 283.416 1157.61 281.679C1161.77 274.191 1160.27 270.068 1155.82 268.713C1151.38 267.358 1147.41 270.149 1140.33 270.149C1139.94 270.149 1139.59 270.173 1139.27 270.221L1135.7 270.424C1125.48 304.985 1122.66 328.043 1127.24 339.599H1158.31C1160.15 343.879 1161.91 347.481 1163.59 350.403H1172.05C1172.85 324.715 1166.73 302.912 1153.68 284.995Z" fill="#FD7974"/>
<path fill-rule="evenodd" clip-rule="evenodd" d="M1151.54 321.85C1150.57 330.002 1148.98 335.918 1146.78 339.599H1158.31C1156.16 334.607 1153.9 328.69 1151.54 321.85V321.85Z" fill="black" fill-opacity="0.1"/>
<rect x="-19" y="341.286" width="245" height="36.4906" rx="18.2453" fill="#F9F3ED"/>
<path fill-rule="evenodd" clip-rule="evenodd" d="M128.407 78.8936C136.224 78.8936 142.669 82.8926 143.557 88.0464C143.591 88.0462 143.626 88.0461 143.661 88.0461C152.086 88.0461 158.915 94.0561 158.915 101.47C158.915 108.338 153.053 114.002 145.492 114.798V114.894H143.661H119.254H118.034V114.851C110.18 114.304 104 108.522 104 101.47C104 95.965 107.765 91.2341 113.153 89.1628C113.235 83.4817 120.033 78.8936 128.407 78.8936Z" fill="#89CBC7"/>
<path fill-rule="evenodd" clip-rule="evenodd" d="M378.119 26.8936C386.805 26.8936 393.965 31.3369 394.952 37.0634C394.99 37.0632 395.029 37.063 395.068 37.063C404.429 37.063 412.017 43.7408 412.017 51.9783C412.017 59.61 405.504 65.9031 397.102 66.7873V66.8936H395.068H367.949H366.593V66.8465C357.866 66.2386 351 59.8141 351 51.9783C351 45.8618 355.184 40.6052 361.17 38.3038C361.261 31.9915 368.814 26.8936 378.119 26.8936Z" fill="#89CBC7"/>
<path fill-rule="evenodd" clip-rule="evenodd" d="M1223 26.8936C1235.81 26.8936 1246.37 33.4475 1247.83 41.8941C1247.89 41.8937 1247.94 41.8936 1248 41.8936C1261.81 41.8936 1273 51.7433 1273 63.8936C1273 75.1504 1263.39 84.4326 1251 85.7368V85.8936H1248H1208H1206V85.8242C1193.13 84.9276 1183 75.4514 1183 63.8936C1183 54.8717 1189.17 47.1183 1198 43.7237C1198.14 34.4131 1209.28 26.8936 1223 26.8936Z" fill="#89CBC7"/>
<rect x="523.615" y="253.278" width="4.15385" height="20.0769" fill="#B28B67"/>
<path fill-rule="evenodd" clip-rule="evenodd" d="M534 194.086C534 196.717 532.826 199.074 530.973 200.661C534.83 202.688 537.462 206.733 537.462 211.393C537.462 214.859 536.006 217.986 533.673 220.194C539.233 223.257 543 229.174 543 235.97C543 245.911 534.941 253.97 525 253.97C515.059 253.97 507 245.911 507 235.97C507 228.993 510.97 222.943 516.774 219.955C514.585 217.763 513.231 214.737 513.231 211.393C513.231 206.733 515.862 202.688 519.72 200.661C517.867 199.074 516.692 196.717 516.692 194.086C516.692 189.306 520.567 185.432 525.346 185.432C530.126 185.432 534 189.306 534 194.086Z" fill="url(#paint0_linear)"/>
<rect x="287" y="253.894" width="6" height="29" fill="#B28B67"/>
<path fill-rule="evenodd" clip-rule="evenodd" d="M302 168.394C302 172.194 300.304 175.599 297.627 177.891C303.199 180.819 307 186.662 307 193.394C307 198.4 304.898 202.916 301.528 206.105C309.559 210.53 315 219.076 315 228.894C315 243.253 303.359 254.894 289 254.894C274.641 254.894 263 243.253 263 228.894C263 218.815 268.735 210.076 277.119 205.761C273.956 202.595 272 198.223 272 193.394C272 186.662 275.801 180.819 281.373 177.891C278.696 175.599 277 172.194 277 168.394C277 161.49 282.596 155.894 289.5 155.894C296.404 155.894 302 161.49 302 168.394Z" fill="url(#paint1_linear)"/>
<rect x="1014.62" y="240.74" width="4.15385" height="20.0769" fill="#B28B67"/>
<path fill-rule="evenodd" clip-rule="evenodd" d="M1025 181.547C1025 184.179 1023.83 186.536 1021.97 188.123C1025.83 190.149 1028.46 194.195 1028.46 198.855C1028.46 202.321 1027.01 205.447 1024.67 207.655C1030.23 210.719 1034 216.635 1034 223.432C1034 233.373 1025.94 241.432 1016 241.432C1006.06 241.432 998 233.373 998 223.432C998 216.455 1001.97 210.404 1007.77 207.417C1005.58 205.225 1004.23 202.198 1004.23 198.855C1004.23 194.195 1006.86 190.149 1010.72 188.123C1008.87 186.536 1007.69 184.179 1007.69 181.547C1007.69 176.768 1011.57 172.894 1016.35 172.894C1021.13 172.894 1025 176.768 1025 181.547Z" fill="url(#paint2_linear)"/>
<path fill-rule="evenodd" clip-rule="evenodd" d="M-29.2577 292.807C-31.9044 313.95 -20.8902 326.442 5.05236 331.686C17.7051 334.244 61.895 333.977 106.008 333.032C152.347 332.039 198.991 333.032 208.5 333.032C227.062 333.032 248.268 333.802 256.426 307.386C259.5 289.894 256.426 281.394 252 277.894C245.675 271.672 195.424 256.504 194.64 255.316C193.862 254.127 117.617 195.177 48.465 199.079C-20.6872 202.981 -27.8923 281.87 -29.2577 292.807Z" fill="url(#paint3_linear)"/>
<path fill-rule="evenodd" clip-rule="evenodd" d="M60.3534 210.175V255.304H133.875V229.616C133.875 229.616 93.7602 209.243 60.3534 210.175Z" fill="#E8EFEB"/>
<path fill-rule="evenodd" clip-rule="evenodd" d="M141.617 232.765V255.329H173.127C173.127 255.329 162.084 241.64 141.617 232.765Z" fill="#E8EFEB"/>
<path fill-rule="evenodd" clip-rule="evenodd" d="M-2.63458 255.333C-2.63458 255.333 -5.92555 215.759 48.4804 210.205C50.364 210.012 48.4804 255.333 48.4804 255.333H-2.63458Z" fill="#E8EFEB"/>
<path d="M233.848 295.04C242.052 298.11 250.215 296.623 252.08 291.719C253.946 286.815 248.807 280.351 240.603 277.282C232.399 274.212 224.236 275.698 222.371 280.602C220.505 285.506 225.644 291.97 233.848 295.04Z" fill="#F9F9F9"/>
<path fill-rule="evenodd" clip-rule="evenodd" d="M84.1544 276.342C84.1544 275.61 83.5592 275.015 82.831 275.015H68.6729C67.9447 275.015 67.3495 275.61 67.3495 276.342V278.996C67.3495 279.729 67.9447 280.323 68.6729 280.323H82.831C83.5592 280.323 84.1544 279.729 84.1544 278.996V276.342Z" fill="#F9F9F9"/>
<path d="M27.8448 357.137C44.6993 357.137 58.3625 343.589 58.3625 326.878C58.3625 310.166 44.6993 296.618 27.8448 296.618C10.9903 296.618 -2.67291 310.166 -2.67291 326.878C-2.67291 343.589 10.9903 357.137 27.8448 357.137Z" fill="#112243"/>
<path d="M27.8912 348.122C39.7184 348.122 49.3062 338.615 49.3062 326.888C49.3062 315.161 39.7184 305.655 27.8912 305.655C16.0639 305.655 6.47607 315.161 6.47607 326.888C6.47607 338.615 16.0639 348.122 27.8912 348.122Z" fill="#E3E3E3"/>
<path fill-rule="evenodd" clip-rule="evenodd" d="M40.5811 309.732C50.07 316.616 52.1833 329.838 45.2903 339.297C38.3686 348.796 24.9674 350.937 15.3858 344.072L40.4687 309.651L40.5811 309.732Z" fill="#C3C3C3"/>
<path d="M180.327 357.137C197.182 357.137 210.845 343.589 210.845 326.878C210.845 310.166 197.182 296.618 180.327 296.618C163.473 296.618 149.81 310.166 149.81 326.878C149.81 343.589 163.473 357.137 180.327 357.137Z" fill="#112243"/>
<path d="M180.374 348.122C192.201 348.122 201.789 338.615 201.789 326.888C201.789 315.161 192.201 305.655 180.374 305.655C168.546 305.655 158.959 315.161 158.959 326.888C158.959 338.615 168.546 348.122 180.374 348.122Z" fill="#E7E8E7"/>
<path fill-rule="evenodd" clip-rule="evenodd" d="M193.064 309.732C202.553 316.616 204.666 329.838 197.773 339.297C190.851 348.796 177.45 350.937 167.868 344.072L192.951 309.651L193.064 309.732Z" fill="#C3C3C3"/>
<path d="M134 255.394V229.394L124.5 225.394L113.5 220.894L101 255.394H134Z" fill="#F4F8F6"/>
<path d="M159.5 255.394L162.5 245.394C168.1 249.794 171.833 253.727 173 255.394H159.5Z" fill="#F4F8F6"/>
<path d="M48.5 210.393C45.7 209.993 37 210.893 31.5 213.393L15.5 255.393H48.5C49.3 252.993 50 217.893 48.5 210.393Z" fill="#F4F8F6"/>
<path fill-rule="evenodd" clip-rule="evenodd" d="M1503 148.894H1259.13C1215 148.894 1226 194.894 1226 214.394C1226 214.394 1211 224.894 1211 238.894C1211 253.894 1218.5 261.782 1226 261.782H1503C1503 217.696 1503 192.979 1503 148.894Z" fill="url(#paint4_linear)"/>
<path d="M1267.38 273.528C1256.47 273.528 1247.63 264.762 1247.63 253.949C1247.63 243.136 1256.47 234.37 1267.38 234.37C1278.28 234.37 1287.12 243.136 1287.12 253.949C1287.12 264.762 1278.28 273.528 1267.38 273.528Z" fill="#112243"/>
<path d="M1267.36 267.671C1259.7 267.671 1253.5 261.52 1253.5 253.932C1253.5 246.344 1259.7 240.193 1267.36 240.193C1275.01 240.193 1281.21 246.344 1281.21 253.932C1281.21 261.52 1275.01 267.671 1267.36 267.671Z" fill="#E3E3E3"/>
<path fill-rule="evenodd" clip-rule="evenodd" d="M1259.14 242.847C1253 247.301 1251.63 255.856 1256.09 261.977C1260.57 268.122 1269.24 269.508 1275.44 265.066L1259.21 242.795L1259.14 242.847Z" fill="#C3C3C3"/>
<path d="M1452.86 273.528C1441.96 273.528 1433.11 264.762 1433.11 253.949C1433.11 243.136 1441.96 234.37 1452.86 234.37C1463.77 234.37 1472.61 243.136 1472.61 253.949C1472.61 264.762 1463.77 273.528 1452.86 273.528Z" fill="#112243"/>
<path d="M1452.84 267.671C1445.19 267.671 1438.98 261.52 1438.98 253.932C1438.98 246.344 1445.19 240.193 1452.84 240.193C1460.49 240.193 1466.69 246.344 1466.69 253.932C1466.69 261.52 1460.49 267.671 1452.84 267.671Z" fill="#E3E3E3"/>
<path fill-rule="evenodd" clip-rule="evenodd" d="M1444.62 242.847C1438.48 247.301 1437.11 255.856 1441.57 261.977C1446.05 268.122 1454.72 269.508 1460.92 265.066L1444.69 242.795L1444.62 242.847Z" fill="#C3C3C3"/>
<path d="M1223.8 246.613C1220.29 246.613 1217.44 243.766 1217.44 240.254C1217.44 236.741 1220.29 233.894 1223.8 233.894C1227.31 233.894 1230.15 236.741 1230.15 240.254C1230.15 243.766 1227.31 246.613 1223.8 246.613Z" fill="#E7CE21"/>
<path d="M1414.98 154.894H1469V202.475H1414.98V154.894Z" fill="#57829D"/>
<path d="M1350.12 154.894H1404.14V202.475H1350.12V154.894Z" fill="#57829D"/>
<path d="M1285.14 154.894H1339.16V202.475H1285.14V154.894Z" fill="#57829D"/>
<path fill-rule="evenodd" clip-rule="evenodd" d="M1273.44 155.394V202.478H1232.13C1232.13 171.394 1228.5 154.394 1273.44 155.394Z" fill="#57829D"/>
<path d="M1273.5 202.394H1256.5L1273.5 167.894V202.394Z" fill="#69A5CA"/>
<path d="M1339 202.394H1322L1339 167.894V202.394Z" fill="#69A5CA"/>
<path d="M1404 202.394H1387L1404 167.894V202.394Z" fill="#69A5CA"/>
<defs>
<filter id="filter0_d" x="189" y="0" width="1041" height="252.743" filterUnits="userSpaceOnUse" color-interpolation-filters="sRGB">
<feFlood flood-opacity="0" result="BackgroundImageFix"/>
<feColorMatrix in="SourceAlpha" type="matrix" values="0 0 0 0 0 0 0 0 0 0 0 0 0 0 0 0 0 0 127 0"/>
<feOffset dx="2"/>
<feGaussianBlur stdDeviation="2"/>
<feColorMatrix type="matrix" values="0 0 0 0 0 0 0 0 0 0 0 0 0 0 0 0 0 0 0.25 0"/>
<feBlend mode="normal" in2="BackgroundImageFix" result="effect1_dropShadow"/>
<feBlend mode="normal" in="SourceGraphic" in2="effect1_dropShadow" result="shape"/>
</filter>
<linearGradient id="paint0_linear" x1="518.423" y1="205.855" x2="539.192" y2="253.97" gradientUnits="userSpaceOnUse">
<stop stop-color="#FD7974"/>
<stop offset="1" stop-color="#AF7621"/>
</linearGradient>
<linearGradient id="paint1_linear" x1="279.5" y1="185.394" x2="309.5" y2="254.894" gradientUnits="userSpaceOnUse">
<stop stop-color="#FD7974"/>
<stop offset="1" stop-color="#AF7621"/>
</linearGradient>
<linearGradient id="paint2_linear" x1="1009.42" y1="193.317" x2="1030.19" y2="241.432" gradientUnits="userSpaceOnUse">
<stop stop-color="#FD7974"/>
<stop offset="1" stop-color="#AF7621"/>
</linearGradient>
<linearGradient id="paint3_linear" x1="-29.6428" y1="266.299" x2="259.998" y2="266.299" gradientUnits="userSpaceOnUse">
<stop stop-color="#FCDB30"/>
<stop offset="1" stop-color="#FEC835"/>
</linearGradient>
<linearGradient id="paint4_linear" x1="1503" y1="205.338" x2="1211" y2="205.338" gradientUnits="userSpaceOnUse">
<stop stop-color="#F2F66E"/>
<stop offset="1" stop-color="#83D2AA"/>
</linearGradient>
</defs>
</svg>
