<svg xmlns="http://www.w3.org/2000/svg" viewBox="0 0 1704.5 417.1" enable-background="new 0 0 1704.5 417.1"><style type="text/css">.st0{fill:#1CA8F3;} .st1{fill:#191919;} .st2{fill:#1996CE;} .st3{fill:#FFFFFF;} .st4{fill:#191919;stroke:#191919;stroke-miterlimit:10;} .st5{fill:#66B7D3;} .st6{fill:#6EC4EA;}</style><path class="st0" d="M5.7 224.6v-1.6c0-43.3 32.5-72.3 75-72.4 43.3 0 75.3 27.1 75.3 71.2v1.6c0 43.7-29.9 73.5-75.8 73.6-45.8.1-74.5-29.7-74.5-72.4zm107.9-.5v-1.6c0-25.2-12.7-40.1-32.8-40.1-20.1 0-32.6 14.5-32.5 40.4v1.6c0 25.8 13.1 40.7 32.8 40.7 20 0 32.5-15.5 32.5-41zM175 237l-.1-84.4h40.7l.1 82.6c0 20.1 5 29.8 22.3 29.8 16.9 0 22.2-9.2 22.2-30.4l-.1-82h41.1l.1 83.8c0 41.3-24.2 60.6-63.3 60.6-40.2 0-63-20.3-63-60zM327.6 152.4h54c38.9 0 57 17.2 57.1 47.4v.8c0 29.8-20 45.9-55.2 45.9h-15.3v47.9h-40.5l-.1-142zm52.3 66.3c13.1 0 20.1-6.2 20-17.9v-.8c0-12.1-7.2-17.1-19.9-17.1h-11.9v35.8h11.8zM448.1 249.3h38.7c1 10.1 5.6 18.5 22.5 18.5 11.7 0 18.3-5.8 18.3-14.1 0-8.7-5.4-11.1-22.5-13.7-40.1-4.7-53.6-16.6-53.7-45.2 0-25.6 21-44.3 55-44.3 34.2 0 53.4 14.3 56.1 44.2h-37.7c-1.4-10.1-7.2-15.3-18.3-15.3-10.9 0-16.5 5-16.5 12.1 0 7.9 4.4 11.5 22.1 13.9 36 3.9 54.4 13.3 54.5 44 0 26-20.6 47.3-57.2 47.3-39.8 0-60.1-16.6-61.3-47.4z"/><path d="M578.2 276.4c0-11.1 8.5-20.1 20.2-20.1 11.9 0 20.9 8.9 20.9 20s-8.9 20.1-20.8 20.1c-11.7 0-20.3-8.9-20.3-20zM625.6 224.1v-1.6c0-43.3 31.7-72.5 74.4-72.6 33.6 0 63.4 15.2 66.2 52.2h-40.3c-2-13.3-10.5-20.3-25.6-20.2-20.1 0-32.2 15.5-32.1 41.1v1.6c0 23 8.6 40.9 33.2 40.9 19.9 0 27.4-10.2 28.2-21.5h-26.6v-28.4l66.7-.1v17.5c0 36.2-23.6 63.4-69.5 63.4-48.3.2-74.5-29.8-74.6-72.3zM782 223.9v-1.6c0-43.3 32.5-72.3 75-72.4 43.3 0 75.3 27.1 75.3 71.2v1.6c0 43.7-29.9 73.5-75.8 73.6-45.9.1-74.5-29.7-74.5-72.4zm107.8-.5v-1.6c0-25.2-12.7-40.1-32.8-40.1-20.1 0-32.6 14.5-32.5 40.4v1.6c0 25.8 13.1 40.7 32.8 40.7 20.1 0 32.6-15.5 32.5-41zM951.2 236.3l-.1-84.4h40.7l.1 82.6c0 20.1 5 29.8 22.3 29.8 16.9 0 22.2-9.2 22.2-30.4l-.1-82h41.1l.1 83.8c0 41.3-24.2 60.6-63.3 60.6-40.1 0-62.9-20.3-63-60zM1092.6 151.8h43.9l28.9 99.7 28.9-99.7h38.1l-46.4 142.1h-46.3l-47.1-142.1zM1222.2 275.8c0-11.1 8.5-20.1 20.2-20.1 11.9 0 20.9 8.9 20.9 20s-8.9 20.1-20.8 20.1c-11.7 0-20.3-8.9-20.3-20zM1286.1 151.6l95.9-.1v31.6h-55v30.2h43.9v30h-43.9v50.3h-40.9v-142zM1401.1 151.5l55.6-.1c37.1 0 57.8 15 57.8 45v.8c0 20.3-10.7 31.6-25.6 37.4l34 58.8h-42.9l-28.8-50.8h-9.5v50.9h-40.5l-.1-142zm53.7 64.7c13.7 0 20.5-5.8 20.4-17.3v-.8c0-11.5-7.2-16.1-20.3-16.1h-13.3v34.2h13.2z"/><path class="st1" d="M296.9 354.7h7.1l17.5 51.8 17.4-51.8h6.7l-20.2 58.7h-8.5l-20-58.7zM347 392.3v-.7c0-12.9 8.9-21.9 21.1-21.9 12.1 0 21.1 8.9 21.1 21.8v.7c0 13-8.9 21.9-21.2 21.9-12.2 0-21-9.3-21-21.8zm35.1-.1v-.6c0-9.9-5.5-16.3-14.1-16.3s-14 6.4-14 16.3v.7c0 9.8 5.4 16.2 14.1 16.2 8.6-.1 14-6.6 14-16.3zM399.3 397.6v-27.2h6.8v26.8c0 7.6 3.2 10.9 9.9 10.9 6.1 0 11.8-4 11.8-11.7v-26h6.8v42.9h-6.8v-6.8c-2 4-6.7 7.6-13.6 7.6-8.4 0-14.8-4.7-14.9-16.5zM445 400.1h6.6c.5 5.1 3.2 8.3 10.1 8.3 6.5 0 9.4-2.2 9.4-6.8 0-4.5-3.4-6-10-7.2-11.2-2-14.9-5.2-15-12.6 0-8 7.8-12.1 14.5-12.1 7.7 0 14.4 3.1 15.5 12.4h-6.6c-1-4.7-3.6-6.7-9-6.7-4.9 0-8.1 2.5-8.1 6.2 0 3.9 2.1 5.4 10 6.8 8.9 1.6 15.1 3.6 15.1 12.7 0 7.8-5.3 13.1-15.7 13.1-10.2-.2-16.4-5.3-16.8-14.1zM506.1 401.3c0-9.9 10.5-13.3 21.5-13.3h6.2v-3.1c0-6.8-2.6-9.7-9.2-9.7-5.9 0-9.2 2.5-9.8 7.7h-6.8c.9-9.8 8.7-13.4 17-13.4 8.2 0 15.7 3.4 15.7 15.3v28.3h-6.8v-5.4c-3.2 4-7.1 6.2-13.4 6.2-8 .1-14.4-3.8-14.4-12.6zm27.7-3.1v-5.3h-5.9c-8.6 0-14.9 2.1-14.9 8.5 0 4.4 2.1 7.2 8.1 7.2 7.2-.1 12.7-3.8 12.7-10.4zM547.9 370.3h7.4l12.8 36 12.5-36h7.1l-15.4 42.9h-8.7l-15.7-42.9zM592.2 392.1v-.7c0-13 8.3-22 20.1-22 9.9 0 19.3 6 19.3 21.3v2.2h-32.3c.3 9.8 5 15.2 13.8 15.2 6.6 0 10.5-2.5 11.4-7.5h6.8c-1.5 8.6-8.6 13.1-18.3 13.1-12.2.2-20.8-8.3-20.8-21.6zm32.4-4.6c-.7-8.9-5.3-12.4-12.3-12.4-7 0-11.7 4.8-12.8 12.4h25.1zM636.4 412.1l25.3-36.2h-22.9v-5.7h33.4v1.2l-24.8 35.7h24.5v6h-35.5v-1zM699.8 392.5v-.7c0-13.1 8.2-22.4 20-22.4 7.1 0 11.6 3.4 14 7.6v-27.4h6.8l.1 63.5h-6.8v-7.4c-2.5 4.2-8.4 8.1-14.7 8.1-11.3 0-19.4-8-19.4-21.3zm34.3-.7v-.7c0-11-5.3-16.2-13.6-16.2-8.5 0-13.6 6-13.6 16.4v.7c0 10.8 5.8 16 13.1 16 7.8.1 14.1-5.2 14.1-16.2zM754.4 370.1h6.8v7.7c2.7-4.8 6.4-8.2 14.1-8.5v6.4c-8.6.4-14.1 3.1-14.1 13.7v23.6h-6.8v-42.9zM780.9 391.9v-.7c0-12.9 8.9-21.9 21.1-21.9 12.1 0 21.1 8.9 21.1 21.8v.7c0 13-8.9 21.9-21.2 21.9-12.2 0-21-9.3-21-21.8zm35.1 0v-.6c0-9.9-5.5-16.3-14.1-16.3s-14 6.4-14 16.3v.7c0 9.8 5.4 16.2 14.1 16.2 8.6-.2 14-6.7 14-16.3zM832.5 356.5c0-2.5 2-4.5 4.5-4.5s4.5 2 4.5 4.5-2 4.5-4.5 4.5c-2.4.1-4.5-2-4.5-4.5zm1.3 13.5h6.8v42.9h-6.8v-42.9zM856.1 402.2v-26.4h-6.2v-5.7h6.2v-9.8h6.8v9.8h10v5.7h-10v25.8c0 4.2 1.9 6.2 5.3 6.2 2.1 0 3.8-.3 5.3-.9v5.7c-1.4.5-3 .9-5.8.9-7.9 0-11.6-4.6-11.6-11.3zM901.9 401c0-9.9 10.5-13.3 21.5-13.3h6.2v-3.1c0-6.8-2.6-9.7-9.2-9.7-5.9 0-9.2 2.5-9.8 7.7h-6.8c.9-9.8 8.7-13.4 17-13.4 8.2 0 15.7 3.4 15.7 15.3v28.3h-6.8v-5.4c-3.2 4-7.1 6.2-13.4 6.2-8 0-14.4-3.8-14.4-12.6zm27.7-3.2v-5.3h-5.9c-8.6 0-14.9 2.1-14.9 8.5 0 4.4 2.1 7.2 8.1 7.2 7.2 0 12.7-3.7 12.7-10.4zm-19.4-47.3h8.5l5.1 12.1h-5.1l-8.5-12.1zM971.7 349.4h6.9l.1 63.5h-6.9l-.1-63.5zM989.5 370.6l7.3-17.4 6.5 2.9-9.6 16.6-4.2-2.1zM1001.3 391.8v-.7c0-13 8.3-22 20.1-22 9.9 0 19.3 6 19.3 21.3v2.2h-32.3c.3 9.8 5 15.2 13.8 15.2 6.6 0 10.5-2.5 11.4-7.5h6.8c-1.5 8.6-8.6 13.1-18.3 13.1-12.2.1-20.8-8.4-20.8-21.6zm32.4-4.7c-.7-8.9-5.3-12.4-12.3-12.4-7 0-11.7 4.8-12.8 12.4h25.1zM1051.1 369.8h6.8v7.7c2.7-4.8 6.4-8.2 14.1-8.5v6.4c-8.6.4-14.1 3.1-14.1 13.7v23.6h-6.8v-42.9zM1081.9 369.8h6.8v7.7c2.7-4.8 6.4-8.2 14.1-8.5v6.4c-8.6.4-14.1 3.1-14.1 13.7v23.6h-6.8v-42.9zM1108.4 391.7v-.7c0-13 8.3-22 20.1-22 9.9 0 19.3 6 19.3 21.3v2.2h-32.3c.3 9.8 5 15.2 13.8 15.2 6.6 0 10.5-2.5 11.4-7.5h6.8c-1.5 8.6-8.6 13.1-18.3 13.2-12.2 0-20.8-8.5-20.8-21.7zm32.4-4.6c-.7-8.9-5.3-12.4-12.3-12.4-7 0-11.7 4.8-12.8 12.4h25.1zM1157.8 396.9v-27.2h6.8v26.8c0 7.6 3.2 10.9 9.9 10.9 6.1 0 11.8-4 11.8-11.7v-26h6.8v42.9h-6.8v-6.8c-2 4-6.7 7.6-13.6 7.6-8.5 0-14.9-4.7-14.9-16.5zM1206.9 369.7h6.8v7.7c2.7-4.8 6.4-8.2 14.1-8.5v6.4c-8.6.4-14.1 3.1-14.1 13.7v23.6h-6.8v-42.9z"/><path class="st2" d="M1535.5 75l.3-1.7c8.2-46.5 48.6-71.5 94.2-63.5 46.5 8.2 75.7 43.4 67.4 90.7l-.3 1.7c-8.2 46.9-46 73.2-95.3 64.6-49.3-8.5-74.4-45.9-66.3-91.8z"/><path class="st0" d="M1626.2 4.5c-45.6-8-86.1 17-94.2 63.5l-.3 1.7c-3.8 21.8-.1 41.7 10.1 57.5l-.2.1c-9.1 4.6-14.2 13-11.3 18.8 2.9 5.8 12.7 6.8 21.8 2.2 2.1-1.1 4-2.3 5.7-3.7 10.6 8.3 24.1 14.2 40.2 17 49.2 8.6 87.1-17.7 95.3-64.6l.3-1.7c8.3-47.4-20.9-82.6-67.4-90.8z"/><circle class="st3" cx="1642.5" cy="69.7" r="16.4"/><circle class="st4" cx="1642.5" cy="69.7" r="8.3"/><circle class="st3" cx="1595.3" cy="58.6" r="16.4"/><circle class="st4" cx="1595.3" cy="58.6" r="8.3"/><path class="st3" d="M1595.6 106.3v-.3c1.3-7.2 7.5-11.1 14.6-9.8 7.2 1.3 11.7 6.7 10.4 14v.3c-1.3 7.3-7.1 11.3-14.7 10-7.7-1.3-11.6-7.1-10.3-14.2z"/><path class="st5" d="M1611.2 144.6l-15.1-22.8c-1.3-2-.9-4.6.9-5.8 1.8-1.2 4.4-.6 5.7 1.4l13.5 20.4c.4.7 1.3.9 1.9.5.6-.4.8-1.3.3-1.9l-15.1-22.8c-1.3-2-.9-4.6.9-5.8 1.8-1.2 4.4-.6 5.7 1.4l15.1 22.8c.4.7 1.3.9 1.9.5.6-.4.7-1.3.3-1.9l-11.9-18c-1.3-2-.9-4.6.9-5.8 1.8-1.2 4.4-.6 5.7 1.4l19.8 30 .1-9.6c-.1-3.1 2-5.6 4.7-5.5 2.7.1 5.1 2.6 5.2 5.7 0 0 .6 16.6.9 23.7.3 7.1-2.1 14.4-11.4 20.5-15.4 10.2-25.3-1.9-27.9-5.7l-21.4-32.4c-1.3-2-.9-4.6.9-5.8 1.8-1.2 4.4-.6 5.7 1.4l10.3 15.6c.4.7 1.3.9 1.9.5.8-.5.9-1.3.5-2z"/><path class="st6" d="M1609.1 143.7l-15.1-22.8c-1.3-2-.9-4.6.9-5.8 1.8-1.2 4.4-.6 5.7 1.4l13.5 20.4c.4.7 1.3.9 1.9.5.6-.4.8-1.3.3-1.9l-15.1-22.8c-1.3-2-.9-4.6.9-5.8 1.8-1.2 4.4-.6 5.7 1.4l15.1 22.8c.4.7 1.3.9 1.9.5.6-.4.7-1.3.3-1.9l-11.9-18c-1.3-2-.9-4.6.9-5.8 1.8-1.2 4.4-.6 5.7 1.4l19.8 30 .1-9.6c-.1-3.1 2-5.6 4.7-5.5 2.7.1 5.1 2.6 5.2 5.7 0 0 .6 16.6.9 23.7.3 7.1-2.1 14.4-11.4 20.5-15.4 10.2-25.3-1.9-27.9-5.7l-21.4-32.4c-1.3-2-.9-4.6.9-5.8 1.8-1.2 4.4-.6 5.7 1.4l10.3 15.6c.4.7 1.3.9 1.9.5.8-.5.9-1.4.5-2z"/></svg>